<svg xmlns="http://www.w3.org/2000/svg" width="280.33" height="256.42"><style>.st2{fill:#d36bc5}.st1{fill:#f0c419}.st4{fill:#e2413e}.st3{fill:#dadada}.st6{fill:#fff}.st5{fill:#28384f}.st7{fill:#33aeff}.st0{fill:#a4c639}</style><path class="st0" d="M104.59 129.47l.06-8.6c.01-1.62.08-3.8.21-6.55.14-2.75.24-4.19.31-4.32h-.56c-1.16 2.58-2.47 5-3.94 7.25l-8.27 12.14zm27.77 15.09l-8.14-.05-.1 14.31-19.72-.12.09-14.32-29.48-.19.09-14.66 31.04-44.76 18.46.12-.29 44.7 8.14.06z"/><path class="st1" d="M137.7 147.39c-.64 8.34-.56 14.11.23 17.32.8 3.2 2.43 4.9 4.89 5.09 2.48.2 4.36-1.28 5.64-4.43 1.28-3.15 2.23-8.79 2.86-16.92.63-8.17.55-13.94-.24-17.29-.79-3.36-2.41-5.14-4.86-5.33-2.45-.19-4.33 1.26-5.61 4.34-1.29 3.08-2.26 8.82-2.91 17.22m33.43 2.59c-1.01 13.04-3.93 22.43-8.77 28.16s-11.76 8.24-20.77 7.55c-8.81-.69-15.2-4.37-19.18-11.05-3.99-6.68-5.49-16.28-4.52-28.78 1.01-13.11 3.94-22.56 8.78-28.33 4.85-5.78 11.77-8.33 20.78-7.63 8.78.68 15.16 4.38 19.15 11.1 4 6.71 5.51 16.37 4.53 28.98"/><path class="st2" d="M186.53 124.11l-1.07-8.54c-.2-1.6-.42-3.77-.64-6.51-.23-2.75-.31-4.19-.27-4.33l-.55.07c-.81 2.72-1.8 5.29-2.95 7.71l-6.62 13.11zm29.5 11.33l-8.08 1.01 1.79 14.2-19.57 2.46-1.79-14.2-29.25 3.67-1.83-14.55 24.92-48.44 18.31-2.3 5.57 44.36 8.08-1.01z"/><path class="st3" d="M87.32 192.9h117.41l16.25-88.04H74.34zm123.51 7.34H80.99L65.85 97.52H229.8z"/><path class="st3" d="M75.24 127.78h145.01v4H75.24zm6.01 38.45h132.98v4H81.25z"/><path class="st3" d="M145.74 101.19h4v95.38h-4zm-36.95 95.59l-9.91-95.38 3.98-.41 9.91 95.37zm76.07.03l-3.97-.49 11.74-95.37 3.97.49zM67.54 107.33L50.01 89.92H26.85V77.44h28.31l21.17 21.04z"/><path class="st3" d="M202.41 234.78H83.67c-13.01 0-23.6-10.59-23.6-23.6 0-13.01 10.59-23.6 23.6-23.6h.48v12.47h-.48c-6.14 0-11.13 5-11.13 11.13 0 6.14 4.99 11.13 11.13 11.13h118.74z"/><path class="st4" d="M41.65 89.92h-22.5c-3.44 0-6.24-2.8-6.24-6.24 0-3.44 2.8-6.24 6.24-6.24h22.5c3.44 0 6.24 2.8 6.24 6.24 0 3.44-2.8 6.24-6.24 6.24"/><path class="st5" d="M222.1 234.29c0 12.23-9.91 22.13-22.14 22.13-12.22 0-22.13-9.9-22.13-22.13 0-12.22 9.91-22.13 22.13-22.13 12.23 0 22.14 9.91 22.14 22.13"/><path class="st6" d="M211.09 234.29c0 6.15-4.98 11.13-11.13 11.13-6.14 0-11.12-4.98-11.12-11.13 0-6.14 4.98-11.13 11.12-11.13 6.15 0 11.13 4.99 11.13 11.13"/><path class="st5" d="M106.02 234.29c0 12.23-9.91 22.13-22.13 22.13-12.23 0-22.14-9.9-22.14-22.13 0-12.22 9.91-22.13 22.14-22.13 12.22 0 22.13 9.91 22.13 22.13"/><path class="st6" d="M95.01 234.29c0 6.15-4.98 11.13-11.12 11.13-6.15 0-11.13-4.98-11.13-11.13 0-6.14 4.98-11.13 11.13-11.13 6.14 0 11.12 4.99 11.12 11.13"/><path class="st1" d="M86.92 39.41c0 1.57-1.27 2.83-2.83 2.83a2.83 2.83 0 110-5.66c1.56 0 2.83 1.27 2.83 2.83"/><path class="st7" d="M159.47 87.1c0 1.93-1.57 3.5-3.5 3.5s-3.5-1.57-3.5-3.5 1.57-3.5 3.5-3.5 3.5 1.57 3.5 3.5"/><path class="st0" d="M250.66 70.5c0 1.51-1.23 2.75-2.75 2.75s-2.75-1.24-2.75-2.75c0-1.52 1.23-2.75 2.75-2.75s2.75 1.23 2.75 2.75"/><path class="st1" d="M94.5 155.74c0 1.52-1.23 2.75-2.75 2.75S89 157.26 89 155.74c0-1.51 1.23-2.75 2.75-2.75s2.75 1.24 2.75 2.75"/><path class="st2" d="M157.6 3c0 1.51-1.23 2.75-2.75 2.75S152.1 4.51 152.1 3c0-1.52 1.23-2.75 2.75-2.75S157.6 1.48 157.6 3"/><path class="st4" d="M273.75 119.25c0 1.51-1.24 2.75-2.75 2.75-1.52 0-2.75-1.24-2.75-2.75 0-1.52 1.23-2.75 2.75-2.75 1.51 0 2.75 1.23 2.75 2.75"/><path class="st0" d="M165.6 216.41c0 1.52-1.23 2.75-2.75 2.75s-2.75-1.23-2.75-2.75 1.23-2.75 2.75-2.75 2.75 1.23 2.75 2.75"/><path class="st4" d="M12.08 54c0 1.51-1.23 2.75-2.75 2.75S6.58 55.51 6.58 54c0-1.52 1.23-2.75 2.75-2.75s2.75 1.23 2.75 2.75"/><path class="st0" d="M45.29 108.43c0 2.11-1.7 3.81-3.81 3.81-2.11 0-3.82-1.7-3.82-3.81a3.82 3.82 0 013.82-3.82c2.11 0 3.81 1.71 3.81 3.82"/><path class="st4" d="M173.81 19.58c0 1.01-.82 1.83-1.84 1.83a1.83 1.83 0 010-3.66c1.02 0 1.84.82 1.84 1.83"/><path class="st2" d="M83.09 90.6c0 1.01-.82 1.83-1.83 1.83-1.02 0-1.84-.82-1.84-1.83 0-1.01.82-1.83 1.84-1.83 1.01 0 1.83.82 1.83 1.83"/><path class="st7" d="M240.8 132.01c0 1.24-1 2.23-2.24 2.23-1.23 0-2.23-.99-2.23-2.23 0-1.23 1-2.23 2.23-2.23 1.24 0 2.24 1 2.24 2.23"/><path class="st2" d="M127.53 209.41c0 1.23-1 2.23-2.23 2.23-1.24 0-2.24-1-2.24-2.23s1-2.23 2.24-2.23c1.23 0 2.23 1 2.23 2.23"/><path class="st5" d="M94.34 9H93V7.65c0-.87-.71-1.57-1.58-1.57-.87 0-1.58.7-1.58 1.57V9H88.5c-.87 0-1.58.71-1.58 1.58 0 .87.71 1.57 1.58 1.57h1.34v1.35c0 .87.71 1.58 1.58 1.58.87 0 1.58-.71 1.58-1.58v-1.35h1.34c.88 0 1.58-.7 1.58-1.57 0-.87-.7-1.58-1.58-1.58m140.41 157.65h-1.34v-1.34c0-.88-.71-1.58-1.58-1.58-.87 0-1.58.7-1.58 1.58v1.34h-1.34c-.88 0-1.58.71-1.58 1.58 0 .87.7 1.58 1.58 1.58h1.34v1.34c0 .87.71 1.58 1.58 1.58.87 0 1.58-.71 1.58-1.58v-1.34h1.34c.87 0 1.58-.71 1.58-1.58 0-.87-.71-1.58-1.58-1.58m4.5-128.82h-1.34v-1.34c0-.87-.71-1.58-1.58-1.58-.87 0-1.58.71-1.58 1.58v1.34h-1.34c-.88 0-1.58.71-1.58 1.58 0 .87.7 1.58 1.58 1.58h1.34v1.34c0 .88.71 1.58 1.58 1.58.87 0 1.58-.7 1.58-1.58v-1.34h1.34c.87 0 1.58-.71 1.58-1.58 0-.87-.71-1.58-1.58-1.58M55.08 142.8h-1.35v-1.34a1.575 1.575 0 10-3.15 0v1.34h-1.35c-.87 0-1.57.71-1.57 1.58 0 .87.7 1.58 1.57 1.58h1.35v1.34c0 .88.7 1.58 1.58 1.58.87 0 1.57-.7 1.57-1.58v-1.34h1.35c.87 0 1.58-.71 1.58-1.58 0-.87-.71-1.58-1.58-1.58"/><path class="st2" d="M52.22 54.49c-.56 0-1.13-.16-1.64-.49l-9.14-5.99a3.01 3.01 0 01-.86-4.16 3 3 0 014.15-.86l9.14 5.99a3.01 3.01 0 01.86 4.16c-.57.87-1.53 1.35-2.51 1.35"/><path class="st0" d="M210.18 28.33c-.6 0-1.2-.18-1.73-.55-1.35-.95-1.67-2.82-.72-4.18l8.1-11.5a2.996 2.996 0 014.18-.72c1.35.95 1.68 2.82.72 4.18l-8.09 11.5c-.59.83-1.52 1.27-2.46 1.27"/><path class="st2" d="M264.66 90.1c-1.32 0-2.53-.88-2.89-2.22-.44-1.59.51-3.24 2.11-3.67l12.67-3.43c1.6-.43 3.24.52 3.68 2.12a3.01 3.01 0 01-2.12 3.68L265.44 90c-.26.07-.52.1-.78.1"/><path class="st0" d="M245.96 200.57c-.61 0-1.23-.19-1.76-.57l-10.33-7.5a3.016 3.016 0 01-.67-4.2 3.002 3.002 0 014.19-.66l10.34 7.5a3.002 3.002 0 01-1.77 5.43"/><path class="st1" d="M34.66 185.34c-.93 0-1.85-.44-2.44-1.26-.96-1.35-.65-3.22.7-4.19l10.63-7.59c1.35-.96 3.22-.65 4.18.7.97 1.35.66 3.22-.69 4.19l-10.63 7.59c-.53.37-1.14.56-1.75.56m95.58-162.76c-1.38 0-2.62-.96-2.93-2.37l-3.58-16.58c-.35-1.62.68-3.22 2.3-3.57 1.62-.33 3.22.68 3.57 2.3l3.58 16.59c.35 1.62-.68 3.21-2.3 3.56-.22.05-.43.07-.64.07"/><path class="st0" d="M3 129.58c-1.28 0-2.46-.82-2.86-2.1-.49-1.58.37-3.26 1.95-3.76l12.67-4c1.58-.5 3.26.38 3.76 1.96s-.37 3.26-1.95 3.76l-12.67 4c-.3.09-.61.14-.9.14"/><path class="st1" d="M272 149.58c-.19 0-.38-.02-.58-.06l-11.33-2.19a3.003 3.003 0 01-2.37-3.52 2.995 2.995 0 013.51-2.38l11.34 2.2a3.003 3.003 0 01-.57 5.95"/><path class="st5" d="M90.54 61.68c-.71.17-1.25.53-1.62 1.08-.38.56-.49 1.32-.36 2.29l5.17-1.19c-.22-.84-.61-1.45-1.18-1.85-.58-.4-1.25-.51-2.01-.33m3.57 13.85c-2.9.67-5.32.42-7.28-.75s-3.27-3.18-3.93-6.02c-.68-2.94-.46-5.37.66-7.28 1.12-1.92 3.06-3.2 5.82-3.83 2.62-.61 4.8-.4 6.55.64 1.74 1.04 2.91 2.84 3.5 5.41l.62 2.67-10.73 2.49c.26.96.79 1.64 1.59 2.04.8.4 1.78.46 2.94.2 1.05-.25 2-.57 2.84-.98.84-.4 1.72-.96 2.64-1.68l1 4.31a11 11 0 01-2.69 1.68c-.96.41-2.13.78-3.53 1.1m31.05-31.47c.53.05 1.04.13 1.51.25l.34.1-1.03 5.75c-.49-.17-1.19-.29-2.08-.37-1.34-.11-2.34.12-3 .68-.65.56-1.03 1.42-1.13 2.57l-.73 8.75-6.14-.51 1.48-17.8 4.58.38.72 2.92.3.03c.59-.9 1.37-1.6 2.33-2.11.97-.5 1.91-.72 2.85-.64m26.66 8.93c.53-.09 1.04-.15 1.53-.15l.35-.01.53 5.82c-.51-.03-1.21.04-2.09.21-1.32.24-2.23.73-2.71 1.44-.49.72-.63 1.65-.41 2.78l1.62 8.63-6.06 1.14-3.3-17.56 4.51-.84 1.47 2.63.3-.06c.33-1.03.89-1.91 1.69-2.65.8-.75 1.65-1.2 2.57-1.38m62.91 1.67c.54-.01 1.05.01 1.54.08l.34.05-.36 5.83c-.51-.1-1.21-.15-2.1-.12-1.35.05-2.32.38-2.91 1.02-.58.63-.86 1.53-.82 2.68l.28 8.78-6.17.2-.57-17.86 4.59-.14L209.6 58l.3-.01a6.22 6.22 0 012.08-2.36c.9-.62 1.82-.94 2.75-.97m-36.81-.45c-.19 2.6-.15 4.4.1 5.4.25.99.76 1.52 1.53 1.58.78.05 1.36-.41 1.75-1.39.4-.99.68-2.75.87-5.29.18-2.54.15-4.34-.1-5.39-.26-1.04-.76-1.59-1.53-1.65-.77-.05-1.35.4-1.74 1.36-.4.97-.69 2.76-.88 5.38m10.43.75c-.3 4.07-1.19 7-2.69 8.79-1.5 1.8-3.66 2.59-6.47 2.39-2.74-.2-4.74-1.33-6-3.41-1.25-2.08-1.73-5.07-1.45-8.97.29-4.09 1.19-7.04 2.69-8.85 1.5-1.81 3.66-2.61 6.47-2.41 2.74.2 4.73 1.34 5.99 3.43 1.25 2.09 1.74 5.1 1.46 9.03"/></svg>