<svg xmlns="http://www.w3.org/2000/svg" width="16" height="16" fill="#ffa5b1"><path d="M4.54 0c.308 0 .558.25.558.559v1.046h6.015V.566a.558.558 0 111.117 0v1.04h2.168A1.6 1.6 0 0116 3.207v11.195c0 .883-.715 1.598-1.602 1.598H1.602A1.598 1.598 0 010 14.402V3.207c0-.883.715-1.602 1.602-1.602h2.375L3.98.56c0-.31.25-.56.56-.56zM1.12 6.195v8.207a.48.48 0 00.48.477h12.797a.48.48 0 00.48-.477V6.203zm4.211 5.5v1.332H4v-1.332zm3.336 0v1.332H7.332v-1.332zm3.332 0v1.332h-1.332v-1.332zM5.332 8.512v1.336H4V8.512zm3.336 0v1.336H7.332V8.512zm3.332 0v1.336h-1.332V8.512zM3.977 2.727H1.602a.48.48 0 00-.48.48v1.867l13.757.012V3.207a.48.48 0 00-.48-.48H12.23v.742c0 .308-.25.562-.558.562a.562.562 0 01-.559-.562v-.742H5.098v.734a.56.56 0 11-1.118 0zm0 0"/></svg>