<svg width="30" height="28"><path fill-rule="evenodd" fill="#fe3e57" d="M27.384 13.676a2.387 2.387 0 00-1.452-.594 2.11 2.11 0 00-1.598.594l-2.89 2.792a1.91 1.91 0 00-.196-.271c-.355-.413-.875-.64-1.464-.64h-4.046a8.497 8.497 0 01-2.212-.286c-1.838-.497-3.594-.134-5.078 1.048a7.256 7.256 0 00-1.322 1.387l-.725-.688a.52.52 0 00-.358-.142h-.004a.522.522 0 00-.366.153l-3.527 3.576a.492.492 0 00.015.708l5.966 5.546a.517.517 0 00.719-.013l3.493-3.5a.497.497 0 00-.01-.71l-.304-.289.696-.076c.422-.049.85-.072 1.274-.072h6.156c1 0 1.85-.214 2.526-.636l.017-.01a3.36 3.36 0 00.652-.579l4.149-4.765c.71-.816.665-1.833-.111-2.533zM8.466 25.796l-5.227-4.86 2.816-2.854 5.196 4.924-2.785 2.79zm18.25-10.234l-4.15 4.766a2.386 2.386 0 01-.448.4c-.507.313-1.169.472-1.967.472h-6.156a12.4 12.4 0 00-1.39.078l-1.53.168L7.87 18.41a6.286 6.286 0 011.225-1.316c1.233-.983 2.632-1.273 4.158-.86.794.214 1.63.323 2.485.323h4.046c.727 0 .92.615.92.977 0 .266-.086.519-.239.693-.165.19-.4.286-.697.286h-3.522a.506.506 0 00-.512.5c0 .276.23.5.512.5h3.522c.595 0 1.12-.228 1.477-.639.298-.342.467-.792.482-1.272l3.329-3.217c.475-.464 1.219-.348 1.635.027.215.193.504.6.024 1.15zm0 0z"/></svg>