<svg width="26" height="28"><path fill-rule="evenodd" fill="#34c3ff" d="M25 4.438l-1.45-.107-.122 1.685a12.275 12.275 0 00-9.07-4.018C7.544 1.998 2 7.606 2 14.498c0 6.894 5.544 12.5 12.358 12.5 4.12 0 7.958-2.072 10.265-5.545l-1.207-.82c-2.037 3.065-5.422 4.895-9.058 4.895-6.012 0-10.904-4.948-10.904-11.03 0-6.08 4.892-11.028 10.904-11.028 3.092 0 6.003 1.325 8.057 3.607l-1.85-.137-.107 1.467 4.234.312L25 4.438zM6.067 14.776c.147.072.553.244.947.244.356 0 .608-.106.608-.366 0-.266-.301-.41-.624-.41h-.46v-.737h.443c.241 0 .554-.078.554-.31 0-.172-.176-.288-.51-.288-.345 0-.717.155-.86.233l-.219-.743c.252-.155.75-.299 1.31-.299.821 0 1.33.388 1.33.925 0 .388-.213.687-.695.842v.01c.444.056.816.378.816.843 0 .704-.657 1.114-1.61 1.114-.548 0-1.003-.133-1.244-.288l.214-.77zm4.617 1.058c-1.068 0-1.495-.88-1.495-1.867 0-.981.427-1.867 1.5-1.867 1.075 0 1.502.886 1.502 1.867 0 .986-.427 1.867-1.501 1.867h-.006zm.011-.754c.28 0 .466-.349.466-1.113 0-.765-.186-1.108-.471-1.108s-.471.343-.471 1.108c0 .764.186 1.113.47 1.113h.006zm3.183-2.997A8.896 8.896 0 0115.176 12c.778 0 1.255.116 1.66.377.433.276.734.73.734 1.413 0 .775-.318 1.246-.68 1.524-.454.348-1.139.498-1.916.498-.548 0-.893-.033-1.096-.066v-3.663zm1.035 2.914c.06.012.165.012.241.012.756.011 1.31-.349 1.31-1.164 0-.742-.52-1.053-1.19-1.053a1.91 1.91 0 00-.36.028v2.177zm5.725.095c0 .288.016.554.044.676h-.932l-.055-.233h-.021c-.198.222-.483.299-.79.299-.591 0-.942-.415-.942-.858 0-.732.647-1.07 1.666-1.07v-.017c0-.1-.066-.221-.471-.221-.302 0-.641.116-.817.215l-.18-.653c.175-.094.575-.255 1.177-.255.926 0 1.32.471 1.32 1.202v.915zm-.997-.554c-.455 0-.674.116-.674.337 0 .156.104.245.296.245a.4.4 0 00.367-.283c.01-.045.01-.1.01-.15v-.15zm2.443-1.497l.356 1.18c.044.156.098.377.137.51h.022c.038-.144.082-.365.115-.51l.268-1.18h1.129l-.57 1.557c-.499 1.38-.794 1.774-1.09 2.018a1.69 1.69 0 01-.97.382l-.192-.875c.094-.006.209-.034.335-.078a.914.914 0 00.35-.244.218.218 0 00.055-.128.366.366 0 00-.044-.16l-1.057-2.472h1.156z"/></svg>