<svg xmlns="http://www.w3.org/2000/svg" width="20" height="20"><g stroke="#fe3e57"><path d="M14.285 3.266h-.156a.398.398 0 100 .797h.156a.398.398 0 100-.797zm-1.976 0H5.82a.398.398 0 100 .797h6.489a.398.398 0 100-.797zm1.976 2.363H5.82a.398.398 0 100 .797h8.465a.398.398 0 100-.797zm0 2.359H5.82a.398.398 0 100 .797h8.465a.398.398 0 100-.797zm0 0"/><path d="M20 8.281a.403.403 0 00-.16-.32l-2.5-1.86V1.095a.4.4 0 00-.399-.399H3.164a.4.4 0 00-.398.399v4.93L.16 7.963A.39.39 0 000 8.28v10.625a.4.4 0 00.398.399h19.204a.4.4 0 00.398-.399zm-2.66-1.187l1.539 1.148-1.54.89zM3.563 1.492h12.98v8.102L10 13.379 3.562 9.652zm-.797 5.524V9.19L1.12 8.242zM.796 8.973l5.657 3.273-5.656 5.656zm.524 9.535l5.848-5.848 2.633 1.524a.388.388 0 00.195.054h.008c.066 0 .137-.02.195-.054l2.633-1.524 5.848 5.848zm17.883-.606l-5.656-5.656 5.656-3.273zm0 0"/></g></svg>