<svg xmlns="http://www.w3.org/2000/svg" width="48.09" height="28.85"><path d="M48.09 14.42c0 7.94-6.41 14.43-14.43 14.43-7.94 0-14.43-6.49-14.43-14.43C19.23 6.48 25.65 0 33.59 0c8.09 0 14.5 6.48 14.5 14.42" fill="#ffb600"/><path d="M33.66 0c7.94 0 14.43 6.48 14.43 14.42 0 7.94-6.41 14.43-14.43 14.43-7.94 0-14.43-6.49-14.43-14.43" fill="#f7981d"/><path d="M33.66 0c7.94 0 14.43 6.48 14.43 14.42 0 7.94-6.41 14.43-14.43 14.43" fill="#ff8500"/><path d="M14.27 0C6.41.07 0 6.48 0 14.42c0 7.94 6.41 14.43 14.42 14.43 3.74 0 7.1-1.45 9.7-3.74.53-.46.99-.99 1.45-1.53h-2.98c-.38-.45-.76-.99-1.07-1.45h5.12c.3-.45.61-.99.84-1.52h-6.8c-.22-.46-.45-1-.61-1.53h7.94c.46-1.45.77-2.98.77-4.58 0-1.07-.16-2.06-.31-3.05h-8.85c.07-.54.22-1 .38-1.53h7.94c-.16-.54-.39-1.07-.61-1.53h-6.72c.23-.53.53-.99.84-1.52h5.11c-.3-.54-.68-1.07-1.14-1.53h-2.83c.46-.54.92-.99 1.45-1.45C21.52 1.52 18.09.15 14.35.15c0-.15 0-.15-.08-.15" fill="#ff5050"/><path d="M0 14.42c0 7.94 6.41 14.43 14.42 14.43 3.74 0 7.1-1.45 9.7-3.74.53-.46.99-.99 1.45-1.53h-2.98c-.38-.45-.76-.99-1.07-1.45h5.12c.3-.45.61-.99.84-1.52h-6.8c-.23-.46-.45-1-.61-1.53h7.94c.46-1.45.77-2.98.77-4.58 0-1.07-.16-2.06-.31-3.05h-8.85c.07-.54.22-1 .38-1.53h7.94c-.16-.54-.39-1.07-.61-1.53h-6.72c.23-.53.53-.99.84-1.52h5.11a7.25 7.25 0 00-1.14-1.53h-2.83c.46-.54.92-.99 1.45-1.45C21.52 1.52 18.09.15 14.35.15h-.08" fill="#e52836"/><path d="M14.42 28.85c3.74 0 7.1-1.45 9.7-3.74.53-.46.99-.99 1.45-1.53h-2.98c-.38-.45-.76-.99-1.07-1.45h5.12c.3-.45.61-.99.84-1.52h-6.8c-.23-.46-.45-.99-.61-1.53h7.94c.46-1.45.77-2.98.77-4.58 0-1.07-.16-2.06-.31-3.05h-8.86c.08-.54.23-1 .39-1.53h7.94c-.16-.53-.39-1.07-.62-1.53h-6.71c.23-.53.53-.99.84-1.52h5.11a7.25 7.25 0 00-1.14-1.53h-2.83c.46-.54.92-.99 1.45-1.45C21.52 1.52 18.09.15 14.35.15h-.08" fill="#cb2026"/><path d="M19.54 18.09l.23-1.3c-.08 0-.23.08-.38.08-.54 0-.61-.31-.54-.46l.46-2.67h.84l.23-1.45h-.76l.15-.92h-1.53s-.92 5.04-.92 5.65c0 .92.54 1.3 1.23 1.3.45 0 .84-.16.99-.23m3.2-4.66c.84 0 .69.99.69 1.07h-1.68c0-.08.15-1.07.99-1.07m-2.67 2.21c0 2.14 1.45 2.68 2.67 2.68 1.15 0 1.61-.23 1.61-.23l.3-1.45s-.84.38-1.6.38c-1.68 0-1.37-1.22-1.37-1.22h3.13s.23-.99.23-1.38c0-.99-.54-2.21-2.22-2.21-1.6-.15-2.75 1.53-2.75 3.43m12.37 2.45l.31-1.68s-.77.38-1.3.38c-1.07 0-1.53-.84-1.53-1.76 0-1.83.92-2.82 1.99-2.82.76 0 1.37.46 1.37.46l.23-1.61s-.92-.38-1.76-.38c-1.75 0-3.51 1.53-3.51 4.43 0 1.91.92 3.21 2.75 3.21.61 0 1.45-.23 1.45-.23m-20.99-2.6c0 .23-.16 1.45-1.07 1.45-.46 0-.61-.38-.61-.61 0-.38.23-.91 1.37-.91.23.07.31.07.31.07m-.31-3.43c-1.07 0-1.83.3-1.83.3l-.23 1.3s.69-.31 1.68-.31c.53 0 .99.08.99.54 0 .3-.07.38-.07.38h-.69c-1.3 0-2.75.53-2.75 2.29 0 1.37.92 1.68 1.45 1.68 1.07 0 1.53-.69 1.6-.69l-.07.61h1.37l.61-4.19c0-1.84-1.52-1.91-2.06-1.91m3.51 6.18c.38 0 2.29.08 2.29-1.98 0-1.91-1.83-1.53-1.83-2.29 0-.39.31-.54.84-.54.23 0 1.07.08 1.07.08l.23-1.38s-.54-.15-1.45-.15c-1.15 0-2.29.46-2.29 1.99 0 1.75 1.91 1.6 1.91 2.29 0 .45-.54.53-.92.53-.69 0-1.37-.23-1.37-.23l-.23 1.37c.07.16.45.31 1.75.31m29.78-3.36c0 .84-.39 1.91-1.23 1.91-.53 0-.84-.46-.84-1.22 0-1.22.54-1.99 1.23-1.99.53 0 .84.39.84 1.3m.68-4.04l-.3 2.06s-.61-.77-1.45-.77c-1.38 0-2.6 1.68-2.6 3.67 0 1.22.61 2.52 1.91 2.52.92 0 1.45-.61 1.45-.61l-.08.53h1.53l1.15-7.33zM2.82 18.16l.92-5.49.15 5.49h1.07l1.98-5.49-.84 5.49h1.61l1.22-7.32H6.41l-1.53 4.5-.08-4.5H2.59l-1.22 7.32zm23.67 0c.45-2.52.53-4.58 1.6-4.19.15-1 .38-1.38.53-1.76h-.3c-.69 0-1.22.92-1.22.92l.15-.84H25.8l-.99 5.95h1.68zm9.84-2.67c0 .23-.15 1.45-1.06 1.45-.46 0-.62-.38-.62-.61 0-.38.23-.91 1.38-.91.23.07.23.07.3.07m-.38-3.43c-1.07 0-1.83.3-1.83.3l-.23 1.3s.69-.31 1.68-.31c.53 0 .99.08.99.54 0 .3-.07.38-.07.38h-.69c-1.3 0-2.75.53-2.75 2.29 0 1.37.92 1.68 1.45 1.68 1.07 0 1.53-.69 1.6-.69l-.07.61h1.37l.61-4.19c.08-1.84-1.52-1.91-2.06-1.91m3.36 6.1c.46-2.52.54-4.58 1.6-4.19.16-1 .39-1.38.54-1.76h-.31c-.68 0-1.22.92-1.22.92l.15-.84h-1.45l-.99 5.95h1.68z" fill="#fff"/><path d="M17.17 17.02c0 .92.54 1.3 1.22 1.3.54 0 1-.15 1.15-.23l.23-1.3c-.08 0-.23.08-.38.08-.54 0-.61-.31-.54-.46l.46-2.67h.84l.23-1.45h-.76l.15-.92m2.97 2.06c.84 0 1 .99 1 1.07h-1.99c0-.08.15-1.07.99-1.07m-1.9 2.21c0 2.14.68 2.68 1.9 2.68 1.15 0 1.61-.23 1.61-.23l.3-1.45s-.84.38-1.6.38c-1.68 0-1.37-1.22-1.37-1.22h3.13s.23-.99.23-1.38c0-.99-.54-2.21-2.22-2.21-1.6-.15-1.98 1.53-1.98 3.43m11.6 2.45l.31-1.68s-.77.38-1.3.38c-1.07 0-1.53-.84-1.53-1.76 0-1.83.92-2.82 1.99-2.82.76 0 1.37.46 1.37.46l.23-1.61s-.92-.38-1.76-.38C30 10.68 29 12.21 29 15.11c0 1.91.16 3.21 1.99 3.21.61 0 1.45-.23 1.45-.23m-20.23-2.6c0 .23-.92 1.45-1.83 1.45-.46 0-.61-.38-.61-.61 0-.38.23-.91 1.37-.91.23.07 1.07.07 1.07.07m-3.13-1.75s.69-.31 1.68-.31c.53 0 .99.08.99.54 0 .3-.07.38-.07.38h-.69c-1.3 0-2.75.53-2.75 2.29 0 1.37.92 1.68 1.45 1.68 1.07 0 1.53-.69 1.6-.69l-.07.61h1.37l.61-4.2c0-1.75-1.52-1.83-2.14-1.83m1.91 5.88s.46.15 1.76.15c.38 0 2.29.08 2.29-1.98 0-1.91-1.83-1.53-1.83-2.29 0-.39.3-.54.84-.54.23 0 1.07.08 1.07.08l.22-1.38s-.53-.15-1.45-.15c-1.14 0-1.52.46-1.52 1.99 0 1.75 1.14 1.6 1.14 2.29 0 .45-.53.53-.91.53m30.15-1.91c0 .84-.69 1.91-1.52 1.91-.54 0-.84-.46-.84-1.22 0-1.22.53-1.99 1.22-1.99.53 0 1.14.39 1.14 1.3m.08-1.98s-.61-.77-1.45-.77c-1.38 0-1.83 1.68-1.83 3.67 0 1.22-.16 2.52 1.14 2.52.92 0 1.45-.61 1.45-.61l-.08.53h1.53l1.15-7.33m-43.9 7.25l.92-5.49.15 5.49h1.07l1.98-5.49-.84 5.49h1.61l1.22-7.32H7.02l-2.14 4.5-.08-4.5h-.83l-2.6 7.32zm22.06 0h1.61c.45-2.52.53-4.58 1.6-4.19.15-1 .38-1.38.53-1.76h-.3c-.69 0-1.22.92-1.22.92l.15-.84m9.77 3.2c0 .23-.92 1.45-1.83 1.45-.46 0-.61-.38-.61-.61 0-.38.23-.91 1.37-.91.31.07 1.07.07 1.07.07m-3.13-1.75s.69-.31 1.68-.31c.53 0 .99.08.99.54 0 .3-.07.38-.07.38h-.69c-1.3 0-2.75.53-2.75 2.29 0 1.37.92 1.68 1.45 1.68 1.07 0 1.53-.69 1.6-.69l-.07.61h1.37l.61-4.2c0-1.75-1.52-1.83-2.13-1.83m1.83 5.95h1.6c.46-2.52.54-4.58 1.6-4.19.16-1 .39-1.38.54-1.76h-.31c-.68 0-1.22.92-1.22.92l.15-.84" fill="#dce5e5"/></svg>