<svg xmlns="http://www.w3.org/2000/svg" width="56.34" height="14.39"><style>.st1{fill:#263b80}.st0{fill:#139ad6}</style><path class="st0" d="M43.91 6.7c-.18 1.08-.98 1.08-1.79 1.08h-.53l.35-2.06c0-.09.09-.18.27-.18h.18c.54 0 1.07 0 1.34.36.18.09.18.36.18.8m-.36-2.95h-3.04c-.18 0-.36.18-.45.36l-1.25 7.87c0 .18.09.27.27.27h1.61c.18 0 .27-.09.27-.27l.36-2.24c0-.17.18-.35.44-.35h.99c2.06 0 3.22-.99 3.49-2.96.18-.8 0-1.52-.36-1.96-.54-.45-1.34-.72-2.33-.72"/><path class="st1" d="M22 6.7c-.18 1.08-.99 1.08-1.79 1.08h-.45l.36-2.06c0-.09.09-.18.27-.18h.18c.53 0 1.07 0 1.34.36.09.09.18.36.09.8m-.36-2.95H18.6c-.18 0-.36.18-.45.36l-1.25 7.87c0 .18.09.27.27.27h1.43c.18 0 .36-.18.45-.36l.35-2.15c0-.17.18-.35.45-.35h.98c2.06 0 3.22-.99 3.49-2.96.18-.8 0-1.52-.35-1.96-.54-.45-1.26-.72-2.33-.72m7.15 5.73c-.17.8-.8 1.43-1.69 1.43-.45 0-.81-.18-.99-.36-.18-.27-.27-.63-.27-1.07.09-.81.81-1.44 1.61-1.44.45 0 .72.18.99.36.27.27.35.72.35 1.08m2.06-2.87h-1.43c-.09 0-.27.09-.27.18l-.09.45-.09-.18c-.35-.45-.98-.63-1.7-.63-1.61 0-3.04 1.26-3.31 2.96-.17.89.09 1.7.54 2.23.45.54 1.07.72 1.88.72 1.34 0 2.06-.81 2.06-.81l-.09.45c0 .18.09.27.27.27h1.34c.18 0 .36-.18.44-.36l.81-5.01c-.09-.09-.27-.27-.36-.27"/><path class="st0" d="M50.62 9.48c-.18.8-.81 1.43-1.7 1.43-.45 0-.81-.18-.98-.36-.18-.27-.27-.63-.27-1.07.09-.81.8-1.44 1.61-1.44.44 0 .71.18.98.36.36.27.45.72.36 1.08m2.06-2.87h-1.43c-.09 0-.27.09-.27.18l-.09.45-.09-.18c-.36-.45-.99-.63-1.7-.63-1.61 0-3.04 1.26-3.31 2.96-.18.89.09 1.7.54 2.23.44.54 1.07.72 1.87.72 1.35 0 2.06-.81 2.06-.81l-.09.45c0 .18.09.27.27.27h1.34c.18 0 .36-.18.45-.36l.8-5.01c-.09-.09-.18-.27-.35-.27"/><path class="st1" d="M38.63 6.61h-1.52c-.18 0-.27.09-.36.18l-1.96 3.04-.9-2.86c-.09-.18-.18-.27-.44-.27h-1.44c-.17 0-.26.18-.26.36l1.61 4.74-1.52 2.15c-.09.18 0 .45.17.45h1.44c.17 0 .26-.09.35-.18l4.92-7.07c.27-.27.09-.54-.09-.54"/><path class="st0" d="M54.37 4.02l-1.25 8.05c0 .18.09.27.27.27h1.25c.18 0 .36-.18.45-.36l1.25-7.87c0-.18-.09-.27-.27-.27h-1.43c-.09-.09-.18 0-.27.18"/><path class="st1" d="M10.28 1.07C9.65.35 8.49 0 6.88 0H2.41c-.27 0-.54.26-.63.53L0 12.25c0 .27.17.45.35.45h2.78l.71-4.39v.18c.09-.27.36-.53.63-.53h1.34c2.59 0 4.56-1.08 5.19-4.03v-.27c-.09 0-.09 0 0 0 .09-1.16-.09-1.88-.72-2.59"/><path class="st0" d="M10.91 3.66v.27c-.63 3.04-2.6 4.03-5.19 4.03H4.38c-.27 0-.54.26-.63.53l-.89 5.46c0 .18.09.36.35.36h2.33c.27 0 .54-.18.54-.45v-.09L6.52 11v-.18c0-.27.27-.45.54-.45h.36c2.23 0 4.02-.89 4.47-3.58.18-1.07.09-2.05-.45-2.68a.9.9 0 00-.53-.45"/><path d="M10.28 3.39c-.09 0-.18-.09-.27-.09-.09 0-.18 0-.27-.09-.35-.08-.71-.08-1.16-.08H5.09c-.09 0-.18 0-.27.08-.17.09-.26.27-.26.45l-.72 4.65v.18c.09-.27.36-.53.63-.53h1.34c2.59 0 4.56-1.08 5.19-4.03 0-.09 0-.18.09-.27-.18-.09-.27-.18-.45-.18-.27-.09-.27-.09-.36-.09" fill="#232c65"/></svg>