<svg xmlns="http://www.w3.org/2000/svg" width="20" height="20"><path d="M13.984 18.191c1.457 0 2.418-.394 3.274-1.347.066-.067.125-.145.191-.211.504-.559.738-1.113.738-1.64 0-.602-.351-1.165-1.097-1.684l-2.438-1.688c-.75-.52-1.629-.578-2.332.117l-.644.645c-.196.191-.364.199-.555.082-.441-.285-1.355-1.078-1.976-1.7-.653-.644-1.29-1.363-1.614-1.89-.117-.191-.101-.352.09-.547l.637-.644c.703-.7.644-1.59.125-2.332l-1.7-2.438c-.507-.746-1.07-1.086-1.671-1.098-.528-.007-1.082.235-1.64.739a4.544 4.544 0 01-.22.183c-.945.856-1.34 1.817-1.34 3.266 0 2.394 1.473 5.305 4.18 8.012 2.684 2.683 5.606 4.175 7.992 4.175zm.008-1.289c-2.133.04-4.87-1.597-7.039-3.757-2.183-2.18-3.902-5.008-3.86-7.141.016-.922.337-1.719.997-2.285a.966.966 0 01.16-.133c.242-.219.52-.336.754-.336.25 0 .469.09.625.344l1.625 2.433c.176.262.191.555-.066.813l-.739.738c-.586.578-.535 1.281-.117 1.84.48.645 1.309 1.582 1.945 2.219.645.644 1.657 1.547 2.301 2.035.559.418 1.274.457 1.848-.117l.738-.739c.258-.257.543-.242.805-.074l2.433 1.625c.254.164.352.375.352.625 0 .242-.117.512-.344.762a1.49 1.49 0 01-.125.16c-.578.652-1.37.973-2.293.988zm0 0" stroke="#fe3e57"/></svg>