<svg xmlns="http://www.w3.org/2000/svg" width="12" height="16" viewBox="0 0 12 15"><path d="M2.66 15c.852-.742 1.442-1.8 1.727-2.887.113-.425.586-2.175.586-2.175.304.57 1.207 1.05 2.152 1.05C9.961 10.988 12 8.453 12 5.29 12 2.258 9.465-.004 6.207-.004c-4.059 0-6.21 2.656-6.21 5.543 0 1.344.733 3.016 1.905 3.547.176.086.274.047.313-.125.027-.133.191-.746.265-1.04a.271.271 0 00-.066-.265c-.387-.46-.7-1.304-.7-2.09 0-2.02 1.567-3.976 4.243-3.976 2.309 0 3.922 1.527 3.922 3.726 0 2.477-1.281 4.2-2.953 4.2-.922 0-1.617-.746-1.39-1.657.269-1.09.78-2.265.78-3.046 0-.704-.382-1.29-1.191-1.29-.945 0-1.7.95-1.7 2.227 0 .813.278 1.36.278 1.36s-.933 3.84-1.105 4.554c-.188.793-.114 1.906-.032 2.629l.082.71zm0 0" fill-rule="evenodd"/></svg>