<svg xmlns="http://www.w3.org/2000/svg" width="20" height="20"><path d="M3.156 2.887a.334.334 0 00-.34.332v9.832c0 .187.153.34.34.34h3.871l.09 3.402a.343.343 0 00.207.297.33.33 0 00.356-.063l3.879-3.636h5.285a.34.34 0 00.34-.34V3.219a.334.334 0 00-.34-.332zm.328.664h13.032v9.168h-5.09c-.004 0-.012.008-.016.008a.264.264 0 00-.14.039.043.043 0 00-.02.011c-.02.012-.035.02-.055.036L7.77 16.03l-.082-2.984v-.008c-.008-.031-.012-.062-.016-.086-.008-.004-.008-.008-.012-.02a.484.484 0 00-.039-.078l-.012-.011c-.023-.024-.039-.047-.066-.063l-.004-.004c-.023-.02-.055-.027-.082-.039-.004-.004-.016-.004-.02-.004-.03-.007-.054-.015-.085-.015H3.484zm2.227 1.82a.334.334 0 000 .668h8.578a.334.334 0 000-.668zm0 2.434a.328.328 0 00-.328.328c0 .187.148.336.328.336h8.578c.18 0 .328-.149.328-.336a.328.328 0 00-.328-.328zm0 2.425a.333.333 0 000 .668h8.578a.334.334 0 000-.668zm0 0" fill="#ffa5b1"/></svg>