<svg xmlns="http://www.w3.org/2000/svg" width="20" height="20"><path d="M3.156 2.887a.335.335 0 00-.34.328v9.836c0 .187.153.34.34.34h3.871l.09 3.402a.319.319 0 00.211.293.323.323 0 00.356-.059l3.875-3.636h5.285a.34.34 0 00.34-.34V3.215a.335.335 0 00-.34-.328zm.328.664h13.032v9.172h-5.094c-.004 0-.008.004-.012.004a.298.298 0 00-.144.039.055.055 0 00-.016.011c-.023.008-.035.024-.05.036l-3.43 3.214-.082-2.98v-.008c-.004-.031-.016-.062-.02-.082-.004-.004-.004-.016-.008-.023a.244.244 0 00-.039-.079l-.012-.011c-.023-.024-.039-.043-.066-.063l-.004-.004c-.027-.015-.05-.03-.082-.039-.004-.004-.02-.004-.023-.004a.26.26 0 00-.082-.011H3.484zm2.227 1.824a.33.33 0 00-.328.332c0 .184.152.336.328.336h8.578a.337.337 0 00.328-.336.33.33 0 00-.328-.332zm0 2.43a.333.333 0 000 .664h8.578a.333.333 0 000-.664zm0 2.425a.335.335 0 00-.328.329c0 .187.152.34.328.34h8.578a.338.338 0 00.328-.34.335.335 0 00-.328-.329zm0 0" fill="#ffa5b1"/></svg>