<svg xmlns="http://www.w3.org/2000/svg" width="16" height="16"><path d="M16 3.04a6.53 6.53 0 01-1.883.515 3.33 3.33 0 001.445-1.817 6.677 6.677 0 01-2.085.797A3.28 3.28 0 007.8 4.781c0 .254.027.504.082.746a9.301 9.301 0 01-6.762-3.43 3.265 3.265 0 00-.445 1.65c0 1.14.578 2.144 1.457 2.73A3.29 3.29 0 01.648 6.07v.04a3.282 3.282 0 002.633 3.218 3.342 3.342 0 01-.867.117c-.21 0-.414-.023-.617-.058a3.287 3.287 0 003.062 2.277A6.57 6.57 0 010 13.024 9.288 9.288 0 005.031 14.5c6.035 0 9.34-5.004 9.34-9.34 0-.144-.004-.285-.008-.426A6.561 6.561 0 0016 3.04zm0 0" fill-rule="evenodd"/></svg>