<svg xmlns="http://www.w3.org/2000/svg" width="16" height="16" fill="#ffa5b1"><path d="M13.266 10.383a6.944 6.944 0 00-2.641-1.656 4.03 4.03 0 001.746-3.313 4.028 4.028 0 00-4.023-4.023 4.028 4.028 0 00-4.024 4.023c0 1.371.696 2.586 1.75 3.313a6.929 6.929 0 00-2.644 1.656 6.91 6.91 0 00-2.04 4.922h1.087a5.877 5.877 0 015.87-5.871 5.877 5.877 0 015.872 5.87h1.086a6.91 6.91 0 00-2.04-4.921zM5.414 5.414a2.938 2.938 0 012.934-2.937 2.938 2.938 0 012.933 2.937 2.937 2.937 0 01-2.933 2.934 2.937 2.937 0 01-2.934-2.934zm0 0"/></svg>