<svg xmlns="http://www.w3.org/2000/svg" width="48" height="33.1"><style>.st1{fill:#f79f1a}</style><path d="M48 30.26c0 1.57-1.28 2.84-2.84 2.84H2.83C1.27 33.1 0 31.83 0 30.26V2.83C0 1.27 1.27 0 2.83 0h42.33C46.72 0 48 1.27 48 2.83z" fill="#fff"/><path class="st1" d="M10.65 16.74l-1.13-5.41c-.19-.74-.75-.97-1.45-1H2.9l-.05.25c4.03.98 6.69 3.33 7.8 6.16"/><path d="M22.62 10.44h-3.34L17.2 22.68h3.33zm-9.94 12.23l5.25-12.22H14.4l-3.27 8.35-.34-1.26c-.64-1.52-2.47-3.7-4.62-5.07l2.98 10.2zm19.46-3.99c.02-1.39-.87-2.45-2.8-3.32-1.17-.57-1.88-.95-1.87-1.52 0-.51.6-1.05 1.91-1.05 1.09-.02 1.88.22 2.5.47l.3.14.45-2.66c-.66-.24-1.7-.51-2.99-.51-3.3 0-5.62 1.66-5.64 4.04-.02 1.76 1.66 2.74 2.93 3.33 1.3.59 1.73.98 1.72 1.51-.01.82-1.03 1.2-1.99 1.2-1.34 0-2.04-.19-3.14-.65l-.43-.19-.47 2.74c.78.34 2.22.64 3.72.65 3.5 0 5.78-1.64 5.8-4.18m6.26-3.76c-.02.03.27-.71.44-1.17l.23 1.06s.63 2.92.77 3.53h-2.77c.28-.7 1.33-3.42 1.33-3.42m-2.29 5.93h4.27c.1.43.41 1.83.41 1.83h3.09l-2.7-12.22h-2.57c-.8 0-1.4.21-1.75 1.01l-4.95 11.21h3.5s.57-1.5.7-1.83M45.16 0H2.83C1.27 0 0 1.27 0 2.83v2.95h48V2.83C48 1.27 46.72 0 45.16 0" fill="#059bbf"/><path class="st1" d="M45.16 33.1H2.83C1.27 33.1 0 31.83 0 30.26v-2.94h48v2.94c0 1.57-1.28 2.84-2.84 2.84"/></svg>