<svg xmlns="http://www.w3.org/2000/svg"
 xmlns:xlink="http://www.w3.org/1999/xlink"
 width="11px" height="12px"  viewBox="0 0 11 12">
<path fill-rule="evenodd"  fill="#727272"
 d="M9.906616,5.768097 C9.906616,5.768097 5.569092,1.1080322 5.569092,1.1080322 C5.50708,1.0418091 5.435791,1.0081787 5.3548584,1.0081787 C5.274536,1.0081787 5.203125,1.0418091 5.1411743,1.1080322 C5.1411743,1.1080322 4.675415,1.6082458 4.675415,1.6082458 C4.6134033,1.6748657 4.5827026,1.7514954 4.5827026,1.8382874 C4.5827026,1.9250793 4.6134033,2.0021362 4.675415,2.068451 C4.675415,2.068451 8.333618,5.9985657 8.333618,5.9985657 C8.333618,5.9985657 4.675415,9.9288025 4.675415,9.9288025 C4.6134033,9.995636 4.5827026,10.072266 4.5827026,10.159058 C4.5827026,10.245117 4.6134033,10.322266 4.675415,10.389435 C4.675415,10.389435 5.1411743,10.889008 5.1411743,10.889008 C5.203125,10.955719 5.274536,10.989136 5.3548584,10.989136 C5.435791,10.989136 5.50708,10.955719 5.569092,10.889008 C5.569092,10.889008 9.906616,6.228302 9.906616,6.228302 C9.968628,6.162201 9.999451,6.085541 9.999451,5.9985657 C9.999451,5.912201 9.968628,5.835144 9.906616,5.768097 C9.906616,5.768097 9.906616,5.768097 9.906616,5.768097 ZM9.906616,5.768097 C9.906616,5.768097 M6.425354,5.9985657 C6.425354,5.912201 6.3946533,5.835144 6.3320312,5.768097 C6.3320312,5.768097 1.9949951,1.1080322 1.9949951,1.1080322 C1.9324951,1.0418091 1.861084,1.0081787 1.7807617,1.0081787 C1.6999512,1.0081787 1.62854,1.0418091 1.5665283,1.1080322 C1.5665283,1.1080322 1.1013184,1.6082458 1.1013184,1.6082458 C1.0394897,1.6748657 1.0081787,1.7514954 1.0081787,1.8382874 C1.0081787,1.9250793 1.0394897,2.0021362 1.1013184,2.068451 C1.1013184,2.068451 4.759094,5.9985657 4.759094,5.9985657 C4.759094,5.9985657 1.1013184,9.9288025 1.1013184,9.9288025 C1.0394897,9.995636 1.0081787,10.072266 1.0081787,10.159058 C1.0081787,10.245117 1.0394897,10.322266 1.1013184,10.389435 C1.1013184,10.389435 1.5665283,10.889008 1.5665283,10.889008 C1.62854,10.955719 1.6999512,10.989136 1.7807617,10.989136 C1.861084,10.989136 1.9324951,10.955719 1.9949951,10.889008 C1.9949951,10.889008 6.3320312,6.228302 6.3320312,6.228302 C6.3946533,6.162201 6.425354,6.085541 6.425354,5.9985657 C6.425354,5.9985657 6.425354,5.9985657 6.425354,5.9985657 ZM6.425354,5.9985657 C6.425354,5.9985657 "/>
</svg>