<svg xmlns="http://www.w3.org/2000/svg" xmlns:xlink="http://www.w3.org/1999/xlink" width="16px" height="16px" fill="#ffa5b1" viewBox="0 0 16 16" version="1.1">
<g>
<path d="M 4.539062 0 C 4.847656 0 5.097656 0.25 5.097656 0.558594 L 5.097656 1.605469 L 11.113281 1.605469 L 11.113281 0.566406 C 11.113281 0.257812 11.363281 0.0078125 11.671875 0.0078125 C 11.980469 0.0078125 12.230469 0.257812 12.230469 0.566406 L 12.230469 1.605469 L 14.398438 1.605469 C 15.285156 1.605469 16 2.324219 16 3.207031 L 16 14.402344 C 16 15.285156 15.285156 16 14.398438 16 L 1.601562 16 C 0.714844 16 0 15.285156 0 14.402344 L 0 3.207031 C 0 2.324219 0.714844 1.605469 1.601562 1.605469 L 3.976562 1.605469 L 3.980469 0.558594 C 3.980469 0.25 4.230469 0 4.539062 0 Z M 1.121094 6.195312 L 1.121094 14.402344 C 1.121094 14.664062 1.335938 14.878906 1.601562 14.878906 L 14.398438 14.878906 C 14.664062 14.878906 14.878906 14.664062 14.878906 14.402344 L 14.878906 6.203125 Z M 5.332031 11.695312 L 5.332031 13.027344 L 4 13.027344 L 4 11.695312 Z M 8.667969 11.695312 L 8.667969 13.027344 L 7.332031 13.027344 L 7.332031 11.695312 Z M 12 11.695312 L 12 13.027344 L 10.667969 13.027344 L 10.667969 11.695312 Z M 5.332031 8.511719 L 5.332031 9.847656 L 4 9.847656 L 4 8.511719 Z M 8.667969 8.511719 L 8.667969 9.847656 L 7.332031 9.847656 L 7.332031 8.511719 Z M 12 8.511719 L 12 9.847656 L 10.667969 9.847656 L 10.667969 8.511719 Z M 3.976562 2.726562 L 1.601562 2.726562 C 1.335938 2.726562 1.121094 2.941406 1.121094 3.207031 L 1.121094 5.074219 L 14.878906 5.085938 L 14.878906 3.207031 C 14.878906 2.941406 14.664062 2.726562 14.398438 2.726562 L 12.230469 2.726562 L 12.230469 3.46875 C 12.230469 3.777344 11.980469 4.03125 11.671875 4.03125 C 11.363281 4.03125 11.113281 3.777344 11.113281 3.46875 L 11.113281 2.726562 L 5.097656 2.726562 L 5.097656 3.460938 C 5.097656 3.773438 4.847656 4.023438 4.539062 4.023438 C 4.230469 4.023438 3.980469 3.773438 3.980469 3.460938 Z M 3.976562 2.726562 "/></g></svg>
