<svg xmlns="http://www.w3.org/2000/svg" xmlns:xlink="http://www.w3.org/1999/xlink" width="15px" height="15px" viewBox="0 0 17 17" version="1.1">
<g>
<path d="M 8.667969 7.285156 L 8.667969 10.199219 L 13.488281 10.199219 C 13.292969 11.453125 12.03125 13.867188 8.667969 13.867188 C 5.765625 13.867188 3.398438 11.460938 3.398438 8.5 C 3.398438 5.539062 5.765625 3.136719 8.667969 3.136719 C 10.320312 3.136719 11.425781 3.839844 12.054688 4.445312 L 14.363281 2.222656 C 12.882812 0.835938 10.964844 0 8.667969 0 C 3.972656 0 0.167969 3.800781 0.167969 8.5 C 0.167969 13.199219 3.972656 17 8.667969 17 C 13.574219 17 16.832031 13.550781 16.832031 8.695312 C 16.832031 8.136719 16.769531 7.710938 16.699219 7.289062 Z M 8.667969 7.285156 "/>
</g>
</svg>
