<svg xmlns="http://www.w3.org/2000/svg"
 xmlns:xlink="http://www.w3.org/1999/xlink"
 width="20px" height="19px"  viewBox="0 0 20 19">
<path fill-rule="evenodd"  fill="#727272"
 d="M9.998779,1.9992371 C9.998779,1.9992371 2.2283325,8.857086 2.2283325,8.857086 C1.9595337,9.094849 1.9307861,9.508301 2.1642456,9.781799 C2.1642456,9.781799 2.1642456,9.781799 2.1642456,9.781799 C2.397705,10.054871 2.8047485,10.083801 3.0734863,9.846741 C3.0734863,9.846741 3.3599243,9.593933 3.3599243,9.593933 C3.3599243,9.593933 3.3599243,16.033844 3.3599243,16.033844 C3.3599243,17.119476 4.225647,17.998962 5.293518,17.998962 C5.293518,17.998962 8.903076,17.998962 8.903076,17.998962 C8.903076,17.998962 8.903076,12.725494 8.903076,12.725494 C8.903076,12.092773 9.408142,11.579407 10.031006,11.579407 C10.031006,11.579407 10.031006,11.579407 10.031006,11.579407 C10.654053,11.579407 11.158936,12.092773 11.158936,12.725494 C11.158936,12.725494 11.158936,17.998962 11.158936,17.998962 C11.158936,17.998962 14.7039795,17.998962 14.7039795,17.998962 C15.771973,17.998962 16.637695,17.119476 16.637695,16.033844 C16.637695,16.033844 16.637695,9.593933 16.637695,9.593933 C16.637695,9.593933 16.924011,9.846741 16.924011,9.846741 C17.192871,10.083984 17.599915,10.054871 17.833374,9.781799 C17.833374,9.781799 17.833374,9.781799 17.833374,9.781799 C18.066711,9.508301 18.038086,9.094849 17.769287,8.857391 C17.769287,8.857391 9.998779,1.9992371 9.998779,1.9992371 ZM15.348511,16.033844 C15.348511,16.39569 15.059998,16.68924 14.7039795,16.68924 C14.7039795,16.68924 12.44812,16.68924 12.44812,16.68924 C12.44812,16.68924 12.44812,12.725494 12.44812,12.725494 C12.44812,11.368988 11.365967,10.2691345 10.031006,10.2691345 C10.031006,10.2691345 10.031006,10.2691345 10.031006,10.2691345 C8.696045,10.2691345 7.6138916,11.368988 7.6138916,12.725494 C7.6138916,12.725494 7.6138916,16.68924 7.6138916,16.68924 C7.6138916,16.68924 5.293518,16.68924 5.293518,16.68924 C4.937622,16.68924 4.648987,16.39569 4.648987,16.033844 C4.648987,16.033844 4.648987,8.455872 4.648987,8.455872 C4.648987,8.455872 9.998779,3.734192 9.998779,3.734192 C9.998779,3.734192 15.348511,8.455872 15.348511,8.455872 C15.348511,8.455872 15.348511,16.033844 15.348511,16.033844 Z"/>
</svg>