<svg 
 width="26px" height="28px"  viewBox="0 0 26 28">
<path fill-rule="evenodd"  fill="#34c3ff"
 d="M25.0,4.437805 C25.0,4.437805 23.549316,4.3306885 23.549316,4.3306885 C23.549316,4.3306885 23.427979,6.015747 23.427979,6.015747 C21.104187,3.472412 17.83197,1.998352 14.358215,1.998352 C7.5438232,1.998352 1.9998779,7.606201 1.9998779,14.498474 C1.9998779,21.391846 7.5438232,26.998535 14.358215,26.998535 C18.478882,26.998535 22.316101,24.92566 24.622864,21.452759 C24.622864,21.452759 23.415527,20.632324 23.415527,20.632324 C21.379395,23.697632 17.99353,25.52771 14.358215,25.52771 C8.345825,25.52771 3.4544067,20.580322 3.4544067,14.498474 C3.4544067,8.417358 8.345825,3.470398 14.358215,3.470398 C17.450195,3.470398 20.361206,4.7946167 22.415344,7.076599 C22.415344,7.076599 20.564209,6.9404907 20.564209,6.9404907 C20.564209,6.9404907 20.458496,8.407288 20.458496,8.407288 C20.458496,8.407288 24.69165,8.719421 24.69165,8.719421 C24.69165,8.719421 25.0,4.437805 25.0,4.437805 ZM6.0665283,14.77594 C6.2143555,14.847656 6.619873,15.02002 7.014221,15.02002 C7.3703613,15.02002 7.6223145,14.91449 7.6223145,14.653931 C7.6223145,14.388123 7.321045,14.2438965 6.997864,14.2438965 C6.997864,14.2438965 6.5376587,14.2438965 6.5376587,14.2438965 C6.5376587,14.2438965 6.5376587,13.506897 6.5376587,13.506897 C6.5376587,13.506897 6.9813843,13.506897 6.9813843,13.506897 C7.222351,13.506897 7.534668,13.429138 7.534668,13.196777 C7.534668,13.0252075 7.359375,12.908813 7.0252075,12.908813 C6.6800537,12.908813 6.307556,13.063843 6.165161,13.141602 C6.165161,13.141602 5.946045,12.39856 5.946045,12.39856 C6.197998,12.2438965 6.696533,12.100098 7.25531,12.100098 C8.077026,12.100098 8.586487,12.487549 8.586487,13.0252075 C8.586487,13.413025 8.372864,13.711914 7.890686,13.866943 C7.890686,13.866943 7.890686,13.877808 7.890686,13.877808 C8.334534,13.933411 8.707031,14.255188 8.707031,14.720398 C8.707031,15.42395 8.049683,15.833984 7.0963745,15.833984 C6.548523,15.833984 6.093872,15.70105 5.852844,15.546387 C5.852844,15.546387 6.0665283,14.77594 6.0665283,14.77594 ZM10.684448,15.833984 C9.616272,15.833984 9.188904,14.953186 9.188904,13.966858 C9.188904,12.985718 9.616272,12.100098 10.689941,12.100098 C11.763611,12.100098 12.190918,12.985718 12.190918,13.966858 C12.190918,14.953186 11.763611,15.833984 10.689941,15.833984 C10.689941,15.833984 10.684448,15.833984 10.684448,15.833984 ZM10.695435,15.080444 C10.9747925,15.080444 11.161072,14.731262 11.161072,13.966858 C11.161072,13.202393 10.9747925,12.859253 10.689941,12.859253 C10.40509,12.859253 10.21875,13.202393 10.21875,13.966858 C10.21875,14.731262 10.40509,15.080444 10.689941,15.080444 C10.689941,15.080444 10.695435,15.080444 10.695435,15.080444 ZM13.87793,12.083191 C14.233948,12.027588 14.699585,11.999817 15.17627,11.999817 C15.954102,11.999817 16.430725,12.116211 16.83612,12.37677 C17.26892,12.653442 17.570251,13.107788 17.570251,13.789612 C17.570251,14.565308 17.252441,15.036133 16.89093,15.313599 C16.436218,15.662415 15.751404,15.811829 14.973572,15.811829 C14.42572,15.811829 14.080566,15.778809 13.87793,15.745789 C13.87793,15.745789 13.87793,12.083191 13.87793,12.083191 ZM14.913269,14.997437 C14.973572,15.008728 15.077576,15.008728 15.154297,15.008728 C15.910278,15.02002 16.463623,14.659973 16.463623,13.845215 C16.463623,13.102539 15.943237,12.792419 15.274902,12.792419 C15.083069,12.792419 14.968079,12.80896 14.913269,12.819824 C14.913269,12.819824 14.913269,14.997437 14.913269,14.997437 ZM20.637695,15.091736 C20.637695,15.3797 20.654175,15.645508 20.681519,15.767517 C20.681519,15.767517 19.750244,15.767517 19.750244,15.767517 C19.750244,15.767517 19.695435,15.535156 19.695435,15.535156 C19.695435,15.535156 19.673523,15.535156 19.673523,15.535156 C19.476257,15.756653 19.191406,15.833984 18.884705,15.833984 C18.29303,15.833984 17.942383,15.419128 17.942383,14.975708 C17.942383,14.2438965 18.588867,13.906433 19.607727,13.906433 C19.607727,13.906433 19.607727,13.889099 19.607727,13.889099 C19.607727,13.789612 19.542053,13.667969 19.136597,13.667969 C18.835388,13.667969 18.495728,13.783997 18.320374,13.883484 C18.320374,13.883484 18.139587,13.230225 18.139587,13.230225 C18.31488,13.135559 18.714844,12.9748535 19.317383,12.9748535 C20.243225,12.9748535 20.637695,13.446472 20.637695,14.177063 C20.637695,14.177063 20.637695,15.091736 20.637695,15.091736 ZM19.640686,14.537537 C19.185913,14.537537 18.966858,14.653931 18.966858,14.875427 C18.966858,15.030884 19.070923,15.119873 19.262695,15.119873 C19.42157,15.119873 19.585876,14.997437 19.6297,14.837158 C19.640686,14.792053 19.640686,14.737305 19.640686,14.686951 C19.640686,14.686951 19.640686,14.537537 19.640686,14.537537 ZM22.083801,13.041321 C22.083801,13.041321 22.43982,14.221802 22.43982,14.221802 C22.483643,14.377258 22.538452,14.598328 22.576782,14.731262 C22.576782,14.731262 22.598633,14.731262 22.598633,14.731262 C22.637085,14.587463 22.680847,14.365967 22.713684,14.221802 C22.713684,14.221802 22.982178,13.041321 22.982178,13.041321 C22.982178,13.041321 24.110657,13.041321 24.110657,13.041321 C24.110657,13.041321 23.540955,14.598328 23.540955,14.598328 C23.04248,15.977783 22.746643,16.371643 22.450806,16.615723 C22.122131,16.887146 21.771484,16.975769 21.48114,16.997925 C21.48114,16.997925 21.289429,16.122742 21.289429,16.122742 C21.382507,16.1167 21.49762,16.089294 21.623596,16.04541 C21.760498,15.999878 21.908447,15.879089 21.974121,15.801331 C22.007019,15.762695 22.028992,15.712341 22.028992,15.673279 C22.028992,15.640259 22.023499,15.5963745 21.985107,15.5130005 C21.985107,15.5130005 20.927795,13.041321 20.927795,13.041321 C20.927795,13.041321 22.083801,13.041321 22.083801,13.041321 Z"/>
</svg>
