<svg 
 width="30px" height="28px"  viewBox="0 0 30 28">
<path fill-rule="evenodd"  fill="#fe3e57"
 d="M27.383911,13.676453 C26.994751,13.32605 26.465332,13.109375 25.931519,13.08197 C25.325195,13.052185 24.757202,13.262451 24.334106,13.676025 C24.334106,13.676025 21.443848,16.468323 21.443848,16.468323 C21.386597,16.372437 21.321533,16.281433 21.248291,16.196838 C20.892578,15.784058 20.372559,15.557312 19.78418,15.557312 C19.78418,15.557312 15.737915,15.557312 15.737915,15.557312 C14.9748535,15.557312 14.230591,15.460632 13.525757,15.270508 C11.68811,14.773926 9.932373,15.136841 8.448364,16.319275 C7.8446045,16.800598 7.404419,17.323364 7.1260986,17.705566 C7.1260986,17.705566 6.4005127,17.01764 6.4005127,17.01764 C6.305176,16.926636 6.1757812,16.875916 6.0427246,16.875916 C6.041504,16.875916 6.0405273,16.875916 6.0393066,16.875916 C5.9016113,16.876709 5.7683105,16.932678 5.6727295,17.029358 C5.6727295,17.029358 2.145752,20.60498 2.145752,20.60498 C2.0515137,20.699951 2.0,20.829224 2.0029297,20.962158 C2.0058594,21.094727 2.0627441,21.221191 2.161377,21.312622 C2.161377,21.312622 8.126709,26.858765 8.126709,26.858765 C8.225586,26.951416 8.352295,26.996948 8.479126,26.996948 C8.612305,26.996948 8.745483,26.946167 8.845581,26.845947 C8.845581,26.845947 12.339355,23.345581 12.339355,23.345581 C12.434814,23.25061 12.487793,23.119263 12.4852295,22.985596 C12.482788,22.854248 12.426147,22.72705 12.329346,22.63562 C12.329346,22.63562 12.0251465,22.347168 12.0251465,22.347168 C12.0251465,22.347168 12.721313,22.271118 12.721313,22.271118 C13.142578,22.222412 13.571045,22.198608 13.995117,22.198608 C13.995117,22.198608 20.15149,22.198608 20.15149,22.198608 C21.151733,22.198608 22.001343,21.984741 22.676758,21.563477 C22.682373,21.559814 22.687988,21.556274 22.693604,21.552612 C22.935547,21.388672 23.155151,21.194214 23.345947,20.974243 C23.345947,20.974243 27.494629,16.208557 27.494629,16.208557 C28.20459,15.392944 28.160156,14.376038 27.383911,13.676453 C27.383911,13.676453 27.383911,13.676453 27.383911,13.676453 ZM8.46582,25.795532 C8.46582,25.795532 3.2391357,20.936035 3.2391357,20.936035 C3.2391357,20.936035 6.0546875,18.081665 6.0546875,18.081665 C6.0546875,18.081665 11.250977,23.005737 11.250977,23.005737 C11.250977,23.005737 8.46582,25.795532 8.46582,25.795532 ZM26.715454,15.561707 C26.715454,15.561707 22.566772,20.328247 22.566772,20.328247 C22.435059,20.479248 22.284058,20.61377 22.117676,20.727783 C21.610596,21.041138 20.949097,21.19983 20.15149,21.19983 C20.15149,21.19983 13.994995,21.19983 13.994995,21.19983 C13.531738,21.19983 13.063599,21.226318 12.605347,21.277954 C12.605347,21.277954 11.074585,21.44629 11.074585,21.44629 C11.074585,21.44629 7.869507,18.40918 7.869507,18.40918 C8.092285,18.086914 8.501831,17.565796 9.094971,17.092957 C10.328125,16.11029 11.727051,15.820251 13.25293,16.232666 C14.046631,16.44696 14.882568,16.555725 15.737915,16.555725 C15.737915,16.555725 19.78418,16.555725 19.78418,16.555725 C20.510864,16.555725 20.704834,17.170715 20.704834,17.533142 C20.704834,17.799011 20.617554,18.05188 20.465332,18.226318 C20.300415,18.416016 20.065674,18.512207 19.768066,18.512207 C19.768066,18.512207 16.24585,18.512207 16.24585,18.512207 C15.963501,18.512207 15.734497,18.736206 15.734497,19.01123 C15.734497,19.287598 15.963501,19.511108 16.24585,19.511108 C16.24585,19.511108 19.768066,19.511108 19.768066,19.511108 C20.362549,19.511108 20.887085,19.283936 21.244873,18.873169 C21.542603,18.530762 21.71228,18.081299 21.726562,17.601257 C21.726562,17.601257 25.055542,14.384094 25.055542,14.384094 C25.53125,13.920105 26.274658,14.035706 26.690552,14.411072 C26.905518,14.604004 27.194702,15.011536 26.715454,15.561707 C26.715454,15.561707 26.715454,15.561707 26.715454,15.561707 ZM26.715454,15.561707 C26.715454,15.561707 M14.651001,18.878784 C14.586548,18.610474 14.311523,18.443726 14.036499,18.506958 C13.761475,18.569458 13.59082,18.838135 13.655273,19.106323 C13.655273,19.106323 13.660156,19.126831 13.660156,19.126831 C13.715576,19.357178 13.925659,19.512695 14.157471,19.512695 C14.196167,19.512695 14.235596,19.5083 14.274658,19.499023 C14.549805,19.436157 14.720459,19.16748 14.655884,18.898926 C14.655884,18.898926 14.651001,18.878784 14.651001,18.878784 ZM14.651001,18.878784 C14.651001,18.878784 M5.4592285,12.532654 C5.4592285,12.532654 10.442017,12.532654 10.442017,12.532654 C10.713379,12.532654 10.964478,12.447693 11.168701,12.301453 C11.373047,12.447693 11.624023,12.532654 11.895508,12.532654 C11.895508,12.532654 16.87854,12.532654 16.87854,12.532654 C17.14978,12.532654 17.400757,12.447693 17.60498,12.301453 C17.809326,12.447693 18.060547,12.532654 18.331665,12.532654 C18.331665,12.532654 23.314575,12.532654 23.314575,12.532654 C23.997192,12.532654 24.552612,11.99054 24.552612,11.323975 C24.552612,11.323975 24.552612,9.055298 24.552612,9.055298 C24.552612,8.036377 23.968506,7.150696 23.094238,6.7141113 C23.517822,6.215515 23.773071,5.575989 23.773071,4.878418 C23.773071,3.2907715 22.449707,1.9975586 20.823242,1.9975586 C19.196777,1.9975586 17.873535,3.2907715 17.873535,4.878418 C17.873535,5.575989 18.128418,6.2159424 18.552124,6.7141113 C18.174316,6.9034424 17.85083,7.1760864 17.60498,7.506775 C17.359375,7.1760864 17.035889,6.903015 16.657959,6.7141113 C17.081543,6.2159424 17.336548,5.575989 17.336548,4.878418 C17.336548,3.2907715 16.013306,1.9975586 14.386841,1.9975586 C12.760254,1.9975586 11.437012,3.2907715 11.437012,4.878418 C11.437012,5.575989 11.692383,6.2159424 12.115845,6.7145386 C11.737915,6.9034424 11.414429,7.1760864 11.168701,7.507141 C10.922974,7.1760864 10.599365,6.9034424 10.221558,6.7141113 C10.645142,6.2159424 10.9001465,5.575989 10.9001465,4.878418 C10.9001465,3.2907715 9.576904,1.9975586 7.9503174,1.9975586 C6.3239746,1.9975586 5.0008545,3.2907715 5.0008545,4.878418 C5.0008545,5.575989 5.2559814,6.2159424 5.6795654,6.7145386 C4.805298,7.150696 4.2210693,8.036743 4.2210693,9.055725 C4.2210693,9.055725 4.2210693,11.323975 4.2210693,11.323975 C4.2210693,11.99054 4.7766113,12.532654 5.4592285,12.532654 C5.4592285,12.532654 5.4592285,12.532654 5.4592285,12.532654 ZM20.823486,2.9967651 C21.885742,2.9967651 22.750366,3.8409424 22.750366,4.878418 C22.750366,5.9158936 21.885742,6.760071 20.823486,6.760071 C19.760742,6.760071 18.896484,5.9158936 18.896484,4.878418 C18.89624,3.8409424 19.760742,2.9967651 20.823486,2.9967651 C20.823486,2.9967651 20.823486,2.9967651 20.823486,2.9967651 ZM19.494873,7.4487305 C19.89441,7.646118 20.345581,7.75885 20.823242,7.75885 C21.301025,7.75885 21.752197,7.646118 22.151611,7.4487305 C22.94629,7.5840454 23.53003,8.2526245 23.53003,9.055298 C23.53003,9.055298 23.53003,11.323975 23.53003,11.323975 C23.53003,11.440002 23.43335,11.534607 23.314575,11.534607 C23.314575,11.534607 18.331665,11.534607 18.331665,11.534607 C18.213013,11.534607 18.116577,11.440002 18.116577,11.323975 C18.116577,11.323975 18.116577,9.055298 18.116577,9.055298 C18.116333,8.253052 18.700317,7.5840454 19.494873,7.4487305 C19.494873,7.4487305 19.494873,7.4487305 19.494873,7.4487305 ZM14.386963,2.9967651 C15.449463,2.9967651 16.313843,3.8409424 16.313843,4.878418 C16.313843,5.9158936 15.449463,6.760071 14.386963,6.760071 C13.324463,6.760071 12.459961,5.9158936 12.459961,4.878418 C12.459961,3.8409424 13.324463,2.9967651 14.386963,2.9967651 C14.386963,2.9967651 14.386963,2.9967651 14.386963,2.9967651 ZM13.058472,7.4487305 C13.458008,7.646118 13.909302,7.75885 14.386963,7.75885 C14.864746,7.75885 15.315796,7.646118 15.715454,7.4487305 C16.509888,7.5840454 17.09375,8.2526245 17.09375,9.055298 C17.09375,9.055298 17.09375,11.323975 17.09375,11.323975 C17.09375,11.440002 16.99707,11.534607 16.87854,11.534607 C16.87854,11.534607 11.89563,11.534607 11.89563,11.534607 C11.776855,11.534607 11.680298,11.440002 11.680298,11.323975 C11.680298,11.323975 11.680298,9.055298 11.680298,9.055298 C11.680298,8.253052 12.264038,7.5840454 13.058472,7.4487305 C13.058472,7.4487305 13.058472,7.4487305 13.058472,7.4487305 ZM7.9505615,2.9967651 C9.013184,2.9967651 9.877563,3.8409424 9.877563,4.878418 C9.877563,5.9158936 9.013184,6.760071 7.9505615,6.760071 C6.8881836,6.760071 6.0235596,5.9158936 6.0235596,4.878418 C6.0235596,3.8409424 6.8881836,2.9967651 7.9505615,2.9967651 C7.9505615,2.9967651 7.9505615,2.9967651 7.9505615,2.9967651 ZM5.2437744,9.055298 C5.2437744,8.253052 5.8276367,7.5840454 6.6223145,7.4487305 C7.0219727,7.646118 7.4727783,7.75885 7.9505615,7.75885 C8.428467,7.75885 8.879395,7.646118 9.278931,7.4487305 C10.07373,7.5840454 10.657593,8.2526245 10.657593,9.055298 C10.657593,9.055298 10.657593,11.323975 10.657593,11.323975 C10.657593,11.440002 10.560791,11.534607 10.442017,11.534607 C10.442017,11.534607 5.4592285,11.534607 5.4592285,11.534607 C5.340332,11.534607 5.2437744,11.440002 5.2437744,11.323975 C5.2437744,11.323975 5.2437744,9.055298 5.2437744,9.055298 ZM5.2437744,9.055298 C5.2437744,9.055298 "/>
</svg>
