<svg 
 width="43px" height="29px"  viewBox="0 0 43 29">
<path fill-rule="evenodd"  fill="#fe3e57"
 d="M39.19873,12.597473 C39.19873,12.597473 38.16278,8.503967 38.16278,8.503967 C38.446045,8.44397 38.65857,8.195862 38.65857,7.8981934 C38.65857,7.8981934 38.65857,7.2385254 38.65857,7.2385254 C38.65857,5.8051147 37.478455,4.638794 36.027893,4.638794 C36.027893,4.638794 31.30951,4.638794 31.30951,4.638794 C31.30951,4.638794 31.30951,3.2770996 31.30951,3.2770996 C31.30951,2.5722656 30.72882,1.9979248 30.015076,1.9979248 C30.015076,1.9979248 5.9635925,1.9979248 5.9635925,1.9979248 C5.249939,1.9979248 4.6692505,2.5722656 4.6692505,3.2770996 C4.6692505,3.2770996 4.6692505,14.499268 4.6692505,14.499268 C4.6692505,14.84198 4.949646,15.118713 5.2955933,15.118713 C5.6414185,15.118713 5.921936,14.84198 5.921936,14.499268 C5.921936,14.499268 5.921936,3.2770996 5.921936,3.2770996 C5.921936,3.2549438 5.9405823,3.236023 5.9635925,3.236023 C5.9635925,3.236023 30.015076,3.236023 30.015076,3.236023 C30.038055,3.236023 30.056824,3.2549438 30.056824,3.2770996 C30.056824,3.2770996 30.056824,14.499695 30.056824,14.499695 C30.056824,14.842407 30.33722,15.119507 30.683167,15.119507 C31.028992,15.119507 31.30951,14.842407 31.30951,14.499695 C31.30951,14.499695 31.30951,13.798462 31.30951,13.798462 C31.30951,13.798462 38.69815,13.798462 38.69815,13.798462 C38.69873,13.798462 38.69919,13.798462 38.699768,13.798462 C38.700317,13.798462 38.700897,13.798462 38.7016,13.798462 C39.610718,13.799316 40.38272,14.389343 40.64789,15.201233 C40.64789,15.201233 38.700317,15.201233 38.700317,15.201233 C38.35437,15.201233 38.073975,15.4783325 38.073975,15.819885 C38.073975,15.819885 38.073975,17.140503 38.073975,17.140503 C38.073975,18.209839 38.954376,19.079712 40.036438,19.079712 C40.036438,19.079712 40.746307,19.079712 40.746307,19.079712 C40.746307,19.079712 40.746307,21.802734 40.746307,21.802734 C40.746307,21.802734 39.10852,21.802734 39.10852,21.802734 C38.570557,20.268188 37.09381,19.162231 35.359802,19.162231 C33.625793,19.162231 32.148926,20.268188 31.611053,21.802734 C31.611053,21.802734 31.30951,21.802734 31.30951,21.802734 C31.30951,21.802734 31.30951,17.140503 31.30951,17.140503 C31.30951,16.79895 31.028992,16.52185 30.683167,16.52185 C30.33722,16.52185 30.056824,16.79895 30.056824,17.140503 C30.056824,17.140503 30.056824,21.802734 30.056824,21.802734 C30.056824,21.802734 17.061493,21.802734 17.061493,21.802734 C16.523499,20.268188 15.046753,19.161865 13.312622,19.161865 C11.578613,19.161865 10.101868,20.268188 9.563904,21.802734 C9.563904,21.802734 5.9635925,21.802734 5.9635925,21.802734 C5.9405823,21.802734 5.921936,21.784546 5.921936,21.76123 C5.921936,21.76123 5.921936,20.399536 5.921936,20.399536 C5.921936,20.399536 8.636017,20.399536 8.636017,20.399536 C8.981964,20.399536 9.262329,20.123291 9.262329,19.780518 C9.262329,19.439331 8.981964,19.161865 8.636017,19.161865 C8.636017,19.161865 2.623169,19.161865 2.623169,19.161865 C2.2773438,19.161865 1.9968262,19.439331 1.9968262,19.780518 C1.9968262,20.123291 2.2773438,20.399536 2.623169,20.399536 C2.623169,20.399536 4.6692505,20.399536 4.6692505,20.399536 C4.6692505,20.399536 4.6692505,21.76123 4.6692505,21.76123 C4.6692505,22.466797 5.249939,23.040771 5.9635925,23.040771 C5.9635925,23.040771 9.346924,23.040771 9.346924,23.040771 C9.346802,23.054077 9.345886,23.068115 9.345886,23.082275 C9.345886,25.243408 11.125427,27.001343 13.312622,27.001343 C15.499939,27.001343 17.27951,25.243408 17.27951,23.082275 C17.27951,23.068115 17.278595,23.054077 17.278473,23.040771 C17.278473,23.040771 31.393951,23.040771 31.393951,23.040771 C31.39386,23.054077 31.392944,23.068115 31.392944,23.082275 C31.392944,25.243408 33.172485,27.001343 35.35968,27.001343 C37.546997,27.001343 39.326538,25.243408 39.326538,23.082275 C39.326538,23.068115 39.325623,23.054077 39.32541,23.040771 C39.32541,23.040771 41.37262,23.040771 41.37262,23.040771 C41.718597,23.040771 41.998962,22.763306 41.998962,22.42212 C41.998962,22.42212 41.998962,15.819885 41.998962,15.819885 C41.998962,14.189941 40.782013,12.8359375 39.19873,12.597473 ZM31.30951,8.517212 C31.30951,8.517212 36.875122,8.517212 36.875122,8.517212 C36.875122,8.517212 37.8981,12.561218 37.8981,12.561218 C37.8981,12.561218 31.30951,12.561218 31.30951,12.561218 C31.30951,12.561218 31.30951,8.517212 31.30951,8.517212 ZM36.027893,5.876831 C36.78766,5.876831 37.405884,6.4873657 37.405884,7.2385254 C37.405884,7.2385254 37.405884,7.279175 37.405884,7.279175 C37.405884,7.279175 31.30951,7.279175 31.30951,7.279175 C31.30951,7.279175 31.30951,5.876831 31.30951,5.876831 C31.30951,5.876831 36.027893,5.876831 36.027893,5.876831 ZM13.312622,25.763306 C11.816223,25.763306 10.598572,24.561157 10.598572,23.082275 C10.598572,21.602905 11.816223,20.399536 13.312622,20.399536 C14.809174,20.399536 16.026825,21.602905 16.026825,23.082275 C16.026825,24.561157 14.809174,25.763306 13.312622,25.763306 ZM35.359802,25.763306 C33.86325,25.763306 32.64572,24.561157 32.64572,23.082275 C32.64572,21.602905 33.86325,20.399536 35.359802,20.399536 C36.856323,20.399536 38.073975,21.602905 38.073975,23.082275 C38.073975,24.561157 36.856323,25.763306 35.359802,25.763306 ZM40.036438,17.842102 C39.64502,17.842102 39.32666,17.5271 39.32666,17.140503 C39.32666,17.140503 39.32666,16.438904 39.32666,16.438904 C39.32666,16.438904 40.746307,16.438904 40.746307,16.438904 C40.746307,16.438904 40.746307,17.842102 40.746307,17.842102 C40.746307,17.842102 40.036438,17.842102 40.036438,17.842102 ZM13.312622,21.802734 C12.598877,21.802734 12.018188,22.37622 12.018188,23.082275 C12.018188,23.787476 12.598877,24.360962 13.312622,24.360962 C14.02652,24.360962 14.607086,23.787476 14.607086,23.082275 C14.607086,22.37622 14.02652,21.802734 13.312622,21.802734 ZM35.359802,21.802734 C34.646027,21.802734 34.06537,22.37622 34.06537,23.082275 C34.06537,23.787476 34.646027,24.360962 35.359802,24.360962 C36.073547,24.360962 36.654236,23.787476 36.654236,23.082275 C36.654236,22.37622 36.073547,21.802734 35.359802,21.802734 ZM18.031158,19.780518 C18.031158,20.123291 18.311523,20.399536 18.65747,20.399536 C18.65747,20.399536 28.010742,20.399536 28.010742,20.399536 C28.35669,20.399536 28.637085,20.123291 28.637085,19.780518 C28.637085,19.439331 28.35669,19.161865 28.010742,19.161865 C28.010742,19.161865 18.65747,19.161865 18.65747,19.161865 C18.311523,19.161865 18.031158,19.439331 18.031158,19.780518 ZM3.959381,17.759949 C3.959381,17.759949 11.976532,17.759949 11.976532,17.759949 C12.322388,17.759949 12.602875,17.481995 12.602875,17.140503 C12.602875,16.798584 12.322388,16.52185 11.976532,16.52185 C11.976532,16.52185 3.959381,16.52185 3.959381,16.52185 C3.6134338,16.52185 3.3330383,16.798584 3.3330383,17.140503 C3.3330383,17.481995 3.6134338,17.759949 3.959381,17.759949 ZM22.891235,8.120544 C22.891235,8.120544 17.32129,13.624878 17.32129,13.624878 C17.32129,13.624878 14.423645,10.761353 14.423645,10.761353 C14.179077,10.519287 13.78241,10.519287 13.537842,10.761353 C13.293304,11.0026245 13.293304,11.394897 13.537842,11.636902 C13.537842,11.636902 16.878387,14.937073 16.878387,14.937073 C17.00061,15.058289 17.161072,15.118713 17.32129,15.118713 C17.481506,15.118713 17.641815,15.058289 17.76416,14.937073 C17.76416,14.937073 23.777008,8.996094 23.777008,8.996094 C24.021545,8.754883 24.021545,8.36261 23.777008,8.120544 C23.53244,7.8792725 23.135803,7.8792725 22.891235,8.120544 Z"/>
</svg>
