<svg xmlns="http://www.w3.org/2000/svg" xmlns:xlink="http://www.w3.org/1999/xlink" width="16px" height="16px" viewBox="0 0 16 16" version="1.1">
<g>
<path d="M 5.714844 5.144531 L 8.875 5.144531 L 8.875 6.765625 L 8.921875 6.765625 C 9.363281 5.972656 10.4375 5.144531 12.042969 5.144531 C 15.382812 5.144531 16 7.21875 16 9.921875 L 16 15.429688 L 12.703125 15.429688 L 12.703125 10.546875 C 12.703125 9.386719 12.679688 7.886719 10.988281 7.886719 C 9.273438 7.886719 9.007812 9.152344 9.007812 10.464844 L 9.007812 15.429688 L 5.714844 15.429688 Z M 3.429688 2.285156 C 3.429688 3.230469 2.660156 4 1.714844 4 C 0.769531 4 0 3.230469 0 2.285156 C 0 1.339844 0.769531 0.570312 1.714844 0.570312 C 2.660156 0.570312 3.429688 1.339844 3.429688 2.285156 Z M 0 5.144531 L 3.429688 5.144531 L 3.429688 15.429688 L 0 15.429688 Z M 0 5.144531 "/>
</g>
</svg>
