<?xml version="1.0" encoding="UTF-8"?>
<svg xmlns="http://www.w3.org/2000/svg" xmlns:xlink="http://www.w3.org/1999/xlink" width="20px" height="20px" viewBox="0 0 20 20" version="1.1">
<g id="surface1">
<path style=" stroke:#fe3e57;fill-rule:nonzero;fill:rgb(0%,0%,0%);fill-opacity:1;" d="M 14.285156 3.265625 L 14.128906 3.265625 C 13.910156 3.265625 13.730469 3.445312 13.730469 3.664062 C 13.730469 3.886719 13.910156 4.0625 14.128906 4.0625 L 14.285156 4.0625 C 14.503906 4.0625 14.683594 3.886719 14.683594 3.664062 C 14.683594 3.445312 14.503906 3.265625 14.285156 3.265625 Z M 14.285156 3.265625 "/>
<path style=" stroke:#fe3e57;fill-rule:nonzero;fill:rgb(0%,0%,0%);fill-opacity:1;" d="M 12.308594 3.265625 L 5.820312 3.265625 C 5.601562 3.265625 5.421875 3.445312 5.421875 3.664062 C 5.421875 3.886719 5.601562 4.0625 5.820312 4.0625 L 12.308594 4.0625 C 12.527344 4.0625 12.707031 3.886719 12.707031 3.664062 C 12.707031 3.445312 12.527344 3.265625 12.308594 3.265625 Z M 12.308594 3.265625 "/>
<path style=" stroke:#fe3e57;fill-rule:nonzero;fill:rgb(0%,0%,0%);fill-opacity:1;" d="M 14.285156 5.628906 L 5.820312 5.628906 C 5.601562 5.628906 5.421875 5.804688 5.421875 6.027344 C 5.421875 6.246094 5.601562 6.425781 5.820312 6.425781 L 14.285156 6.425781 C 14.503906 6.425781 14.683594 6.246094 14.683594 6.027344 C 14.683594 5.804688 14.503906 5.628906 14.285156 5.628906 Z M 14.285156 5.628906 "/>
<path style=" stroke:#fe3e57;fill-rule:nonzero;fill:rgb(0%,0%,0%);fill-opacity:1;" d="M 14.285156 7.988281 L 5.820312 7.988281 C 5.601562 7.988281 5.421875 8.164062 5.421875 8.386719 C 5.421875 8.605469 5.601562 8.785156 5.820312 8.785156 L 14.285156 8.785156 C 14.503906 8.785156 14.683594 8.605469 14.683594 8.386719 C 14.683594 8.164062 14.503906 7.988281 14.285156 7.988281 Z M 14.285156 7.988281 "/>
<path style=" stroke:#fe3e57;fill-rule:nonzero;fill:rgb(0%,0%,0%);fill-opacity:1;" d="M 20 8.28125 C 20 8.15625 19.941406 8.039062 19.839844 7.960938 L 17.339844 6.101562 L 17.339844 1.09375 C 17.339844 0.875 17.160156 0.695312 16.941406 0.695312 L 3.164062 0.695312 C 2.945312 0.695312 2.765625 0.875 2.765625 1.09375 L 2.765625 6.023438 L 0.160156 7.964844 C 0.0585938 8.039062 0 8.15625 0 8.28125 L 0 18.90625 C 0 19.125 0.179688 19.304688 0.398438 19.304688 L 19.601562 19.304688 C 19.820312 19.304688 20 19.125 20 18.90625 Z M 17.339844 7.09375 L 18.878906 8.242188 L 17.339844 9.132812 Z M 3.5625 1.492188 L 16.542969 1.492188 L 16.542969 9.59375 L 10 13.378906 L 3.5625 9.652344 Z M 2.765625 7.015625 L 2.765625 9.191406 L 1.121094 8.242188 Z M 0.796875 8.972656 L 6.453125 12.246094 L 0.796875 17.902344 Z M 1.320312 18.507812 L 7.167969 12.660156 L 9.800781 14.183594 C 9.859375 14.21875 9.929688 14.238281 9.996094 14.238281 C 9.996094 14.238281 10 14.238281 10 14.238281 C 10 14.238281 10.003906 14.238281 10.003906 14.238281 C 10.070312 14.238281 10.140625 14.21875 10.199219 14.183594 L 12.832031 12.660156 L 18.679688 18.507812 Z M 19.203125 17.902344 L 13.546875 12.246094 L 19.203125 8.972656 Z M 19.203125 17.902344 "/>
</g>
</svg>
