<?xml version="1.0" encoding="UTF-8"?>
<svg xmlns="http://www.w3.org/2000/svg" xmlns:xlink="http://www.w3.org/1999/xlink" width="20px" height="20px" viewBox="0 0 20 20" version="1.1">
<g id="surface1">
<path style=" stroke:#fe3e57;fill-rule:nonzero;fill:rgb(0%,0%,0%);fill-opacity:1;" d="M 13.984375 18.191406 C 15.441406 18.191406 16.402344 17.796875 17.257812 16.84375 C 17.324219 16.777344 17.382812 16.699219 17.449219 16.632812 C 17.953125 16.074219 18.1875 15.519531 18.1875 14.992188 C 18.1875 14.390625 17.835938 13.828125 17.089844 13.308594 L 14.652344 11.621094 C 13.902344 11.101562 13.023438 11.042969 12.320312 11.738281 L 11.675781 12.382812 C 11.480469 12.574219 11.3125 12.582031 11.121094 12.464844 C 10.679688 12.179688 9.765625 11.386719 9.144531 10.765625 C 8.492188 10.121094 7.855469 9.402344 7.53125 8.875 C 7.414062 8.683594 7.429688 8.523438 7.621094 8.328125 L 8.257812 7.683594 C 8.960938 6.984375 8.902344 6.09375 8.382812 5.351562 L 6.683594 2.914062 C 6.175781 2.167969 5.613281 1.828125 5.011719 1.816406 C 4.484375 1.808594 3.929688 2.050781 3.371094 2.554688 C 3.296875 2.621094 3.226562 2.679688 3.152344 2.738281 C 2.207031 3.59375 1.8125 4.554688 1.8125 6.003906 C 1.8125 8.398438 3.285156 11.308594 5.992188 14.015625 C 8.675781 16.699219 11.597656 18.191406 13.984375 18.191406 Z M 13.992188 16.902344 C 11.859375 16.941406 9.121094 15.304688 6.953125 13.144531 C 4.769531 10.964844 3.050781 8.136719 3.09375 6.003906 C 3.109375 5.082031 3.429688 4.285156 4.089844 3.71875 C 4.140625 3.667969 4.191406 3.625 4.25 3.585938 C 4.492188 3.367188 4.769531 3.25 5.003906 3.25 C 5.253906 3.25 5.472656 3.339844 5.628906 3.59375 L 7.253906 6.027344 C 7.429688 6.289062 7.445312 6.582031 7.1875 6.839844 L 6.449219 7.578125 C 5.863281 8.15625 5.914062 8.859375 6.332031 9.417969 C 6.8125 10.0625 7.640625 11 8.277344 11.636719 C 8.921875 12.28125 9.933594 13.183594 10.578125 13.671875 C 11.136719 14.089844 11.851562 14.128906 12.425781 13.554688 L 13.164062 12.816406 C 13.421875 12.558594 13.707031 12.574219 13.96875 12.742188 L 16.402344 14.367188 C 16.65625 14.53125 16.753906 14.742188 16.753906 14.992188 C 16.753906 15.234375 16.636719 15.503906 16.410156 15.753906 C 16.371094 15.8125 16.335938 15.855469 16.285156 15.914062 C 15.707031 16.566406 14.914062 16.886719 13.992188 16.902344 Z M 13.992188 16.902344 "/>
</g>
</svg>
