<svg xmlns="http://www.w3.org/2000/svg" xmlns:xlink="http://www.w3.org/1999/xlink" width="12px" height="16px" viewBox="0 0 12 15" version="1.1">
<g>
<path d="M 2.660156 15 C 3.511719 14.257812 4.101562 13.199219 4.386719 12.113281 C 4.5 11.6875 4.972656 9.9375 4.972656 9.9375 C 5.277344 10.507812 6.179688 10.988281 7.125 10.988281 C 9.960938 10.988281 12 8.453125 12 5.289062 C 12 2.257812 9.464844 -0.00390625 6.207031 -0.00390625 C 2.148438 -0.00390625 -0.00390625 2.652344 -0.00390625 5.539062 C -0.00390625 6.882812 0.730469 8.554688 1.902344 9.085938 C 2.078125 9.171875 2.175781 9.132812 2.214844 8.960938 C 2.242188 8.828125 2.40625 8.214844 2.480469 7.921875 C 2.503906 7.832031 2.492188 7.746094 2.414062 7.65625 C 2.027344 7.195312 1.714844 6.351562 1.714844 5.566406 C 1.714844 3.546875 3.28125 1.589844 5.957031 1.589844 C 8.265625 1.589844 9.878906 3.117188 9.878906 5.316406 C 9.878906 7.792969 8.597656 9.515625 6.925781 9.515625 C 6.003906 9.515625 5.308594 8.769531 5.535156 7.859375 C 5.804688 6.769531 6.316406 5.59375 6.316406 4.8125 C 6.316406 4.109375 5.933594 3.523438 5.125 3.523438 C 4.179688 3.523438 3.425781 4.472656 3.425781 5.75 C 3.425781 6.5625 3.703125 7.109375 3.703125 7.109375 C 3.703125 7.109375 2.769531 10.949219 2.597656 11.664062 C 2.410156 12.457031 2.484375 13.570312 2.566406 14.292969 L 2.648438 15.003906 Z M 2.660156 15 "/>
</g>
</svg>
