<?xml version="1.0" encoding="UTF-8"?>
<svg xmlns="http://www.w3.org/2000/svg" xmlns:xlink="http://www.w3.org/1999/xlink" width="20px" height="20px" viewBox="0 0 20 20" version="1.1">
<g id="surface1">
<path style=" stroke:none;fill-rule:nonzero;fill:rgb(100%,64.705882%,69.411765%);fill-opacity:1;" d="M 3.15625 2.886719 C 2.96875 2.886719 2.816406 3.03125 2.816406 3.21875 L 2.816406 13.050781 C 2.816406 13.238281 2.96875 13.390625 3.15625 13.390625 L 7.027344 13.390625 L 7.117188 16.792969 C 7.125 16.921875 7.203125 17.039062 7.324219 17.089844 C 7.445312 17.144531 7.585938 17.113281 7.679688 17.027344 L 11.558594 13.390625 L 16.84375 13.390625 C 17.03125 13.390625 17.183594 13.238281 17.183594 13.050781 L 17.183594 3.21875 C 17.183594 3.03125 17.03125 2.886719 16.84375 2.886719 Z M 3.484375 3.550781 L 16.515625 3.550781 L 16.515625 12.71875 L 11.425781 12.71875 C 11.421875 12.71875 11.414062 12.726562 11.410156 12.726562 C 11.363281 12.726562 11.3125 12.738281 11.269531 12.765625 C 11.257812 12.769531 11.253906 12.773438 11.25 12.777344 C 11.230469 12.789062 11.214844 12.796875 11.195312 12.8125 L 7.769531 16.03125 L 7.6875 13.046875 C 7.6875 13.042969 7.6875 13.039062 7.6875 13.039062 C 7.679688 13.007812 7.675781 12.976562 7.671875 12.953125 C 7.664062 12.949219 7.664062 12.945312 7.660156 12.933594 C 7.652344 12.910156 7.636719 12.882812 7.621094 12.855469 C 7.617188 12.851562 7.613281 12.847656 7.609375 12.84375 C 7.585938 12.820312 7.570312 12.796875 7.542969 12.78125 C 7.542969 12.78125 7.539062 12.777344 7.539062 12.777344 C 7.515625 12.757812 7.484375 12.75 7.457031 12.738281 C 7.453125 12.734375 7.441406 12.734375 7.4375 12.734375 C 7.40625 12.726562 7.382812 12.71875 7.351562 12.71875 L 3.484375 12.71875 Z M 5.710938 5.371094 C 5.53125 5.371094 5.382812 5.523438 5.382812 5.707031 C 5.382812 5.890625 5.53125 6.039062 5.710938 6.039062 L 14.289062 6.039062 C 14.46875 6.039062 14.617188 5.890625 14.617188 5.707031 C 14.617188 5.523438 14.46875 5.371094 14.289062 5.371094 Z M 5.710938 7.804688 C 5.53125 7.804688 5.382812 7.949219 5.382812 8.132812 C 5.382812 8.320312 5.53125 8.46875 5.710938 8.46875 L 14.289062 8.46875 C 14.46875 8.46875 14.617188 8.320312 14.617188 8.132812 C 14.617188 7.949219 14.46875 7.804688 14.289062 7.804688 Z M 5.710938 10.230469 C 5.53125 10.230469 5.382812 10.382812 5.382812 10.5625 C 5.382812 10.746094 5.53125 10.898438 5.710938 10.898438 L 14.289062 10.898438 C 14.46875 10.898438 14.617188 10.746094 14.617188 10.5625 C 14.617188 10.382812 14.46875 10.230469 14.289062 10.230469 Z M 5.710938 10.230469 "/>
</g>
</svg>
