<?xml version="1.0" encoding="UTF-8"?>
<svg xmlns="http://www.w3.org/2000/svg" xmlns:xlink="http://www.w3.org/1999/xlink" width="20px" height="20px" viewBox="0 0 20 20" version="1.1">
<g id="surface1">
<path style=" stroke:none;fill-rule:nonzero;fill:rgb(100%,64.705882%,69.411765%);fill-opacity:1;" d="M 3.15625 2.886719 C 2.96875 2.886719 2.816406 3.035156 2.816406 3.214844 L 2.816406 13.050781 C 2.816406 13.238281 2.96875 13.390625 3.15625 13.390625 L 7.027344 13.390625 L 7.117188 16.792969 C 7.121094 16.921875 7.199219 17.039062 7.328125 17.085938 C 7.449219 17.144531 7.585938 17.113281 7.683594 17.027344 L 11.558594 13.390625 L 16.84375 13.390625 C 17.03125 13.390625 17.183594 13.238281 17.183594 13.050781 L 17.183594 3.214844 C 17.183594 3.035156 17.03125 2.886719 16.84375 2.886719 Z M 3.484375 3.550781 L 16.515625 3.550781 L 16.515625 12.722656 L 11.421875 12.722656 C 11.417969 12.722656 11.414062 12.726562 11.410156 12.726562 C 11.363281 12.726562 11.316406 12.738281 11.265625 12.765625 C 11.257812 12.769531 11.253906 12.773438 11.25 12.777344 C 11.226562 12.785156 11.214844 12.800781 11.199219 12.8125 L 7.769531 16.027344 L 7.6875 13.046875 C 7.6875 13.042969 7.6875 13.039062 7.6875 13.039062 C 7.683594 13.007812 7.671875 12.976562 7.667969 12.957031 C 7.664062 12.953125 7.664062 12.941406 7.660156 12.933594 C 7.652344 12.90625 7.640625 12.882812 7.621094 12.855469 C 7.617188 12.851562 7.613281 12.847656 7.609375 12.84375 C 7.585938 12.820312 7.570312 12.800781 7.542969 12.78125 C 7.542969 12.78125 7.539062 12.777344 7.539062 12.777344 C 7.511719 12.761719 7.488281 12.746094 7.457031 12.738281 C 7.453125 12.734375 7.4375 12.734375 7.433594 12.734375 C 7.410156 12.726562 7.382812 12.722656 7.351562 12.722656 L 3.484375 12.722656 Z M 5.710938 5.375 C 5.535156 5.375 5.382812 5.519531 5.382812 5.707031 C 5.382812 5.890625 5.535156 6.042969 5.710938 6.042969 L 14.289062 6.042969 C 14.464844 6.042969 14.617188 5.890625 14.617188 5.707031 C 14.617188 5.519531 14.464844 5.375 14.289062 5.375 Z M 5.710938 7.804688 C 5.535156 7.804688 5.382812 7.953125 5.382812 8.132812 C 5.382812 8.320312 5.535156 8.46875 5.710938 8.46875 L 14.289062 8.46875 C 14.464844 8.46875 14.617188 8.320312 14.617188 8.132812 C 14.617188 7.953125 14.464844 7.804688 14.289062 7.804688 Z M 5.710938 10.230469 C 5.535156 10.230469 5.382812 10.382812 5.382812 10.558594 C 5.382812 10.746094 5.535156 10.898438 5.710938 10.898438 L 14.289062 10.898438 C 14.464844 10.898438 14.617188 10.746094 14.617188 10.558594 C 14.617188 10.382812 14.464844 10.230469 14.289062 10.230469 Z M 5.710938 10.230469 "/>
</g>
</svg>
