<svg xmlns="http://www.w3.org/2000/svg" xmlns:xlink="http://www.w3.org/1999/xlink" width="16px" height="16px" viewBox="0 0 16 16" version="1.1">
<g>
<path d="M 16 3.039062 C 15.410156 3.300781 14.777344 3.476562 14.117188 3.554688 C 14.792969 3.148438 15.3125 2.503906 15.5625 1.738281 C 14.925781 2.113281 14.222656 2.386719 13.476562 2.535156 C 12.875 1.898438 12.023438 1.5 11.082031 1.5 C 9.269531 1.5 7.800781 2.96875 7.800781 4.78125 C 7.800781 5.035156 7.828125 5.285156 7.882812 5.527344 C 5.15625 5.390625 2.738281 4.085938 1.121094 2.097656 C 0.828125 2.597656 0.675781 3.167969 0.675781 3.746094 C 0.675781 4.886719 1.253906 5.890625 2.132812 6.476562 C 1.597656 6.460938 1.089844 6.3125 0.648438 6.070312 L 0.648438 6.109375 C 0.648438 7.699219 1.777344 9.027344 3.28125 9.328125 C 3.003906 9.402344 2.714844 9.445312 2.414062 9.445312 C 2.203125 9.445312 2 9.421875 1.796875 9.386719 C 2.214844 10.6875 3.425781 11.636719 4.859375 11.664062 C 3.734375 12.546875 2.324219 13.070312 0.78125 13.070312 C 0.515625 13.070312 0.257812 13.054688 0 13.023438 C 1.457031 13.957031 3.179688 14.5 5.03125 14.5 C 11.066406 14.5 14.371094 9.496094 14.371094 5.160156 C 14.371094 5.015625 14.367188 4.875 14.363281 4.734375 C 15.003906 4.277344 15.558594 3.699219 16 3.039062 Z M 16 3.039062 "/>
</g>
</svg>
