<svg xmlns="http://www.w3.org/2000/svg" xmlns:xlink="http://www.w3.org/1999/xlink" width="16px" height="16px" fill="#ffa5b1" viewBox="0 0 16 16" version="1.1">
<g id="surface1">
<path d="M 13.265625 10.382812 C 12.507812 9.625 11.605469 9.066406 10.625 8.726562 C 11.675781 8 12.371094 6.785156 12.371094 5.414062 C 12.371094 3.195312 10.566406 1.390625 8.347656 1.390625 C 6.128906 1.390625 4.324219 3.195312 4.324219 5.414062 C 4.324219 6.785156 5.019531 8 6.074219 8.726562 C 5.089844 9.066406 4.1875 9.625 3.429688 10.382812 C 2.113281 11.699219 1.390625 13.445312 1.390625 15.304688 C 1.390625 15.304688 2.476562 15.304688 2.476562 15.304688 C 2.476562 12.066406 5.109375 9.433594 8.347656 9.433594 C 11.585938 9.433594 14.21875 12.066406 14.21875 15.304688 C 14.21875 15.304688 15.304688 15.304688 15.304688 15.304688 C 15.304688 13.445312 14.582031 11.699219 13.265625 10.382812 Z M 5.414062 5.414062 C 5.414062 3.792969 6.730469 2.476562 8.347656 2.476562 C 9.964844 2.476562 11.28125 3.792969 11.28125 5.414062 C 11.28125 7.03125 9.964844 8.347656 8.347656 8.347656 C 6.730469 8.347656 5.414062 7.03125 5.414062 5.414062 Z M 5.414062 5.414062 "/>
</g>
</svg>
