<svg xmlns="http://www.w3.org/2000/svg" width="67" height="54"><path fill-rule="evenodd" fill="#fe3e57" d="M2.75 1c.966 0 1.75.776 1.75 1.734s-.784 1.734-1.75 1.734C1.783 4.468 1 3.692 1 2.734S1.783 1 2.75 1zm12.297 0c.975 0 1.765.776 1.765 1.734s-.79 1.734-1.765 1.734c-.975 0-1.766-.776-1.766-1.734S14.071 1 15.047 1zm12.297 0c.966 0 1.75.776 1.75 1.734s-.784 1.734-1.75 1.734c-.967 0-1.75-.776-1.75-1.734S26.377 1 27.344 1zm12.312 0c.967 0 1.75.776 1.75 1.734s-.783 1.734-1.75 1.734c-.966 0-1.75-.776-1.75-1.734S38.69 1 39.656 1zm12.297 0c.975 0 1.766.776 1.766 1.734s-.79 1.734-1.766 1.734c-.975 0-1.766-.776-1.766-1.734S50.977 1 51.953 1zM64.25 1c.966 0 1.75.776 1.75 1.734s-.784 1.734-1.75 1.734c-.967 0-1.75-.776-1.75-1.734S63.283 1 64.25 1zM2.75 13.125c.966 0 1.75.776 1.75 1.734s-.784 1.735-1.75 1.735c-.967 0-1.75-.777-1.75-1.735 0-.958.783-1.734 1.75-1.734zm12.297 0c.975 0 1.765.776 1.765 1.734s-.79 1.735-1.765 1.735c-.975 0-1.766-.777-1.766-1.735 0-.958.79-1.734 1.766-1.734zm12.297 0c.966 0 1.75.776 1.75 1.734s-.784 1.735-1.75 1.735c-.967 0-1.75-.777-1.75-1.735 0-.958.783-1.734 1.75-1.734zm12.312 0c.967 0 1.75.776 1.75 1.734s-.783 1.735-1.75 1.735c-.966 0-1.75-.777-1.75-1.735 0-.958.784-1.734 1.75-1.734zm12.297 0c.975 0 1.766.776 1.766 1.734s-.79 1.735-1.766 1.735c-.975 0-1.766-.777-1.766-1.735 0-.958.79-1.734 1.766-1.734zm12.297 0c.966 0 1.75.776 1.75 1.734s-.784 1.735-1.75 1.735c-.967 0-1.75-.777-1.75-1.735 0-.958.783-1.734 1.75-1.734zM2.75 25.28c.966 0 1.75.77 1.75 1.719 0 .95-.784 1.719-1.75 1.719-.967 0-1.75-.77-1.75-1.72 0-.948.783-1.718 1.75-1.718zm12.297 0c.975 0 1.765.77 1.765 1.719 0 .95-.79 1.719-1.765 1.719-.975 0-1.766-.77-1.766-1.72 0-.948.79-1.718 1.766-1.718zm12.297 0c.966 0 1.75.77 1.75 1.719 0 .95-.784 1.719-1.75 1.719-.967 0-1.75-.77-1.75-1.72 0-.948.783-1.718 1.75-1.718zm12.312 0c.967 0 1.75.77 1.75 1.719 0 .95-.783 1.719-1.75 1.719-.966 0-1.75-.77-1.75-1.72 0-.948.784-1.718 1.75-1.718zm12.297 0c.975 0 1.766.77 1.766 1.719 0 .95-.79 1.719-1.766 1.719-.975 0-1.766-.77-1.766-1.72 0-.948.79-1.718 1.766-1.718zm12.297 0c.966 0 1.75.77 1.75 1.719 0 .95-.784 1.719-1.75 1.719-.967 0-1.75-.77-1.75-1.72 0-.948.783-1.718 1.75-1.718zM2.75 37.406c.966 0 1.75.776 1.75 1.734s-.784 1.735-1.75 1.735c-.967 0-1.75-.777-1.75-1.735 0-.958.783-1.734 1.75-1.734zm12.297 0c.975 0 1.765.776 1.765 1.734s-.79 1.735-1.765 1.735c-.975 0-1.766-.777-1.766-1.735 0-.958.79-1.734 1.766-1.734zm12.297 0c.966 0 1.75.776 1.75 1.734s-.784 1.735-1.75 1.735c-.967 0-1.75-.777-1.75-1.735 0-.958.783-1.734 1.75-1.734zm12.312 0c.967 0 1.75.776 1.75 1.734s-.783 1.735-1.75 1.735c-.966 0-1.75-.777-1.75-1.735 0-.958.784-1.734 1.75-1.734zm12.297 0c.975 0 1.766.776 1.766 1.734s-.79 1.735-1.766 1.735c-.975 0-1.766-.777-1.766-1.735 0-.958.79-1.734 1.766-1.734zm12.297 0c.966 0 1.75.776 1.75 1.734s-.784 1.735-1.75 1.735c-.967 0-1.75-.777-1.75-1.735 0-.958.783-1.734 1.75-1.734zM2.75 49.531c.966 0 1.75.777 1.75 1.734C4.5 52.223 3.716 53 2.75 53 1.783 53 1 52.223 1 51.265c0-.957.783-1.734 1.75-1.734zm12.297 0c.975 0 1.765.777 1.765 1.734 0 .958-.79 1.735-1.765 1.735-.975 0-1.766-.777-1.766-1.735 0-.957.79-1.734 1.766-1.734zm12.297 0c.966 0 1.75.777 1.75 1.734 0 .958-.784 1.735-1.75 1.735-.967 0-1.75-.777-1.75-1.735 0-.957.783-1.734 1.75-1.734zm12.312 0c.967 0 1.75.777 1.75 1.734 0 .958-.783 1.735-1.75 1.735-.966 0-1.75-.777-1.75-1.735 0-.957.784-1.734 1.75-1.734zm12.297 0c.975 0 1.766.777 1.766 1.734 0 .958-.79 1.735-1.766 1.735-.975 0-1.766-.777-1.766-1.735 0-.957.79-1.734 1.766-1.734zm12.297 0c.966 0 1.75.777 1.75 1.734 0 .958-.784 1.735-1.75 1.735-.967 0-1.75-.777-1.75-1.735 0-.957.783-1.734 1.75-1.734z"/></svg>